<?xml version="1.0" encoding="UTF-8" standalone="no"?><svg xmlns="http://www.w3.org/2000/svg" xmlns:xlink="http://www.w3.org/1999/xlink" width="48" height="48" viewBox="0 0 48 48"><defs><linearGradient xlink:href="#ea" id="eO" gradientUnits="userSpaceOnUse" x1="284.802" y1="-441.233" x2="288.9" y2="-436.831"/><linearGradient xlink:href="#eb" id="eN" gradientUnits="userSpaceOnUse" x1="286.666" y1="-439.484" x2="289.766" y2="-436.707"/><linearGradient xlink:href="#ec" id="eM" gradientUnits="userSpaceOnUse" x1="275.942" y1="-437.105" x2="279.975" y2="-431.918"/><linearGradient xlink:href="#ea" id="eL" gradientUnits="userSpaceOnUse" x1="285.941" y1="-439.939" x2="289.391" y2="-436.443"/><linearGradient xlink:href="#ed" id="eK" gradientUnits="userSpaceOnUse" x1="286.512" y1="-441.291" x2="289.854" y2="-436.145"/><linearGradient xlink:href="#ee" id="eJ" gradientUnits="userSpaceOnUse" x1="287.517" y1="-439.753" x2="289.676" y2="-436.322"/><linearGradient xlink:href="#ef" id="eI" gradientUnits="userSpaceOnUse" x1="271.022" y1="-441.052" x2="285.029" y2="-431.97"/><linearGradient xlink:href="#ea" id="eH" gradientUnits="userSpaceOnUse" x1="284.802" y1="-441.233" x2="288.9" y2="-436.831"/><linearGradient id="eb"><stop offset="0" stop-color="#fff"/><stop offset="1" stop-color="#fff" stop-opacity="0"/></linearGradient><linearGradient xlink:href="#eb" id="eG" gradientUnits="userSpaceOnUse" x1="286.666" y1="-439.484" x2="289.766" y2="-436.707"/><linearGradient id="ec"><stop offset="0" stop-color="#fff"/><stop offset="1" stop-color="#fff" stop-opacity="0"/></linearGradient><linearGradient xlink:href="#ec" id="eF" gradientUnits="userSpaceOnUse" x1="275.942" y1="-437.105" x2="279.975" y2="-431.918"/><linearGradient id="ea"><stop offset="0" stop-color="#fff"/><stop offset="1" stop-color="#fff" stop-opacity="0"/></linearGradient><linearGradient xlink:href="#ea" id="eE" gradientUnits="userSpaceOnUse" x1="285.941" y1="-439.939" x2="289.391" y2="-436.443"/><linearGradient id="ed"><stop offset="0" stop-color="#fff"/><stop offset="1" stop-color="#fff" stop-opacity="0"/></linearGradient><linearGradient xlink:href="#ed" id="eD" gradientUnits="userSpaceOnUse" x1="286.512" y1="-441.291" x2="289.854" y2="-436.145"/><linearGradient id="ee"><stop offset="0" stop-color="#fff"/><stop offset="1" stop-color="#fff" stop-opacity="0"/></linearGradient><linearGradient xlink:href="#ee" id="eC" gradientUnits="userSpaceOnUse" x1="287.517" y1="-439.753" x2="289.676" y2="-436.322"/><linearGradient id="ef"><stop offset="0" stop-color="#fff"/><stop offset="1" stop-color="#fff" stop-opacity="0"/></linearGradient><linearGradient xlink:href="#ef" id="eB" gradientUnits="userSpaceOnUse" x1="271.022" y1="-441.052" x2="285.029" y2="-431.97"/><linearGradient id="eg"><stop offset="0" stop-color="#fff"/><stop offset="1" stop-color="#fff" stop-opacity="0"/></linearGradient><linearGradient xlink:href="#eg" id="eA" gradientUnits="userSpaceOnUse" x1="-156.29" y1="-100.534" x2="-153.098" y2="-96.545"/><linearGradient id="eh"><stop offset="0" stop-color="#fff"/><stop offset="1" stop-color="#fff" stop-opacity="0"/></linearGradient><linearGradient xlink:href="#eh" id="ez" gradientUnits="userSpaceOnUse" x1="238.005" y1="-388.475" x2="245.655" y2="-382.645"/><linearGradient id="ei"><stop offset="0" stop-color="#fff"/><stop offset="1" stop-color="#fff" stop-opacity="0"/></linearGradient><linearGradient xlink:href="#ei" id="ey" gradientUnits="userSpaceOnUse" x1="230.876" y1="-390.44" x2="235.257" y2="-386.959"/><linearGradient id="ej"><stop offset="0" stop-color="#fff"/><stop offset="1" stop-color="#fff" stop-opacity="0"/></linearGradient><linearGradient xlink:href="#ej" id="ex" gradientUnits="userSpaceOnUse" x1="246.74" y1="-391.314" x2="252.698" y2="-385.352"/><linearGradient id="ek"><stop offset="0" stop-color="#fff"/><stop offset="1" stop-color="#fff" stop-opacity="0"/></linearGradient><linearGradient xlink:href="#ek" id="ew" gradientUnits="userSpaceOnUse" x1="240.074" y1="-393.407" x2="245.827" y2="-388.55"/><linearGradient id="el"><stop offset="0" stop-color="#fff"/><stop offset="1" stop-color="#fff" stop-opacity="0"/></linearGradient><linearGradient xlink:href="#el" id="ev" gradientUnits="userSpaceOnUse" gradientTransform="translate(69.003 102)" x1="228.503" y1="-392.306" x2="278.915" y2="-375.38"/><linearGradient id="eu"><stop offset="0" stop-color="#fff"/><stop offset="1" stop-color="#fff" stop-opacity="0"/></linearGradient><linearGradient id="et"><stop offset="0" stop-color="#fff"/><stop offset="1" stop-color="#fff" stop-opacity="0"/></linearGradient><linearGradient id="eo"><stop offset="0" stop-color="#fff"/><stop offset="1" stop-color="#fff" stop-opacity="0"/></linearGradient><linearGradient id="em"><stop offset="0" stop-color="#fff"/><stop offset="1" stop-color="#fff" stop-opacity="0"/></linearGradient><linearGradient id="es"><stop offset="0" stop-color="#edd400"/><stop offset="1" stop-color="#edd400" stop-opacity="0"/></linearGradient><linearGradient id="en"><stop offset="0" stop-color="#fcaf3e"/><stop offset="1" stop-color="#fcaf3e" stop-opacity="0"/></linearGradient><linearGradient id="er"><stop offset="0" stop-color="#fce94f"/><stop offset="1" stop-color="#fce94f" stop-opacity="0"/></linearGradient><linearGradient id="eq"><stop offset="0" stop-color="#eeeeec"/><stop offset="1" stop-color="#eeeeec" stop-opacity="0"/></linearGradient><linearGradient id="ep"><stop offset="0" stop-color="#fff"/><stop offset="1" stop-color="#fff" stop-opacity="0"/></linearGradient></defs><g transform="translate(-287 298)"><path d="M311.503-296c-2.773 0-5.11 1.574-6.407 3.813-.944-.476-1.965-.813-3.093-.813-3.864 0-7 3.136-7 7s3.136 7 7 7c2.42 0 4.43-1.32 5.687-3.188 1.134.69 2.39 1.188 3.813 1.188.913 0 1.753-.232 2.562-.53.51.866 1.18 1.578 2 2.155-.007.13-.062.243-.062.375 0 3.864 3.136 7 7 7s7-3.136 7-7c0-2.37-1.26-4.358-3.063-5.625.007-.13.063-.243.063-.375 0-3.864-3.136-7-7-7-.623 0-1.176.222-1.75.375-1.195-2.56-3.742-4.375-6.75-4.375z" fill="#888a85"/><path d="M311.503-295c-2.78 0-5.135 1.762-6.063 4.22-.985-.71-2.13-1.22-3.437-1.22-3.312 0-6 2.688-6 6s2.688 6 6 6c2.427 0 4.493-1.456 5.437-3.53 1.12.916 2.502 1.53 4.063 1.53 1.074 0 2.044-.32 2.937-.78.398 1 1.1 1.785 1.938 2.436-.18.596-.375 1.19-.375 1.844 0 3.588 2.912 6.5 6.5 6.5s6.5-2.912 6.5-6.5c0-2.36-1.335-4.33-3.22-5.47.063-.346.22-.665.22-1.03 0-3.312-2.688-6-6-6-.853 0-1.672.18-2.407.5-.853-2.594-3.215-4.5-6.093-4.5z" fill="url(#ev)"/><path d="M329.003-278.5a6.5 6.5 0 1 1-13 0 6.5 6.5 0 1 1 13 0z" fill="#c4c5c2"/><g transform="translate(69.003 102)"><path d="M248-390.5a5.5 5.5 0 1 1-11 0 5.5 5.5 0 1 1 11 0z" fill="#c4c5c2"/><path d="M250.183-389.3a6.23 6.23 0 1 1-12.463 0 6.23 6.23 0 1 1 12.463 0z" transform="translate(27.18 -46.89) scale(.88263)" fill="url(#ew)"/></g><g transform="translate(69.003 102)"><path d="M256-386.5a5.5 5.5 0 1 1-11 0 5.5 5.5 0 1 1 11 0z" fill="#c4c5c2"/><path d="M257.254-385.788a6.033 6.033 0 1 1-12.065 0 6.033 6.033 0 1 1 12.064 0z" transform="matrix(.91173 0 0 .91173 21.454 -34.766)" fill="url(#ex)"/></g><g transform="translate(69.003 102)"><path d="M238-388a5 5 0 1 1-10 0 5 5 0 1 1 10 0z" fill="#c4c5c2"/><path d="M237.81-387.887a4.375 4.375 0 1 1-8.752 0 4.375 4.375 0 1 1 8.75 0z" transform="matrix(1.1428 0 0 1.1428 -33.768 55.277)" fill="url(#ey)"/></g><g transform="translate(69.003 102)"><path d="M249-384a7 7 0 1 1-14 0 7 7 0 1 1 14 0z" fill="#c4c5c2"/><path d="M248.548-383.667a6.74 6.74 0 1 1-13.48 0 6.74 6.74 0 1 1 13.48 0z" transform="matrix(1.03864 0 0 1.03864 -9.15 14.49)" fill="url(#ez)"/></g><g transform="matrix(.93503 0 0 .93503 446.828 -187.616)"><path d="M-153.195-98.375a5.43 5.43 0 1 1-10.86 0 5.43 5.43 0 1 1 10.86 0z" fill="#c4c5c2"/><path d="M-151.938-96.938a3.125 3.125 0 1 1-6.25 0 3.125 3.125 0 1 1 6.25 0z" transform="matrix(1.73773 0 0 1.73773 110.895 70.014)" fill="url(#eA)"/></g><g transform="translate(38.003 162)"><path d="M280.5-445.5c-2.27 0-4.11 1.55-4.72 3.625-.692-.364-1.443-.625-2.28-.625-2.76 0-5 2.24-5 5 0 .58.163 1.108.344 1.625-1.374.77-2.344 2.19-2.344 3.875 0 2.484 2.016 4.5 4.5 4.5h19c2.484 0 4.5-2.016 4.5-4.5 0-1.686-.97-3.104-2.344-3.875.18-.517.344-1.046.344-1.625 0-2.76-2.24-5-5-5-.837 0-1.588.26-2.28.625-.61-2.075-2.45-3.625-4.72-3.625z" fill="#c4c5c2" stroke="#888a85" stroke-miterlimit="2"/><path d="M280.5-445c-2.19 0-3.724 1.336-4.396 3.844-.668-.344-1.547-.834-2.354-.834-2.717 0-4.755 1.94-4.755 4.546 0 .546.267 1.333.442 1.822-1.325.728-2.437 1.89-2.437 3.372 0 2.346 1.546 4.25 4.34 4.25h18.32c2.772 0 4.34-1.904 4.34-4.25 0-1.592-1.112-2.666-2.437-3.394.175-.49.464-1.254.464-1.8 0-2.607-2.116-4.568-4.777-4.568-.807 0-1.642.49-2.31.833-.65-2.42-2.25-3.82-4.44-3.82z" fill="url(#eB)"/><path d="M284-440.5a3.5 3.5 0 1 1-7 0 3.5 3.5 0 1 1 7 0z" fill="#c4c5c2"/><path transform="matrix(1.0566 0 0 1.0566 -24.198 21.863)" d="M291.688-437.594a3.313 3.313 0 1 1-6.625 0 3.313 3.313 0 1 1 6.625 0z" fill="url(#eC)"/><path fill="#c4c5c2" d="M271-438h20v9h-20z"/><path d="M274-432a3 3 0 1 1-6 0 3 3 0 1 1 6 0zM291-437.5a3.5 3.5 0 1 1-7 0 3.5 3.5 0 1 1 7 0z" fill="#c4c5c2"/><path transform="matrix(1.0566 0 0 1.0566 -17.198 24.863)" d="M291.688-437.594a3.313 3.313 0 1 1-6.625 0 3.313 3.313 0 1 1 6.625 0z" fill="url(#eD)"/><path d="M277-437.5a3.5 3.5 0 1 1-7 0 3.5 3.5 0 1 1 7 0z" fill="#c4c5c2"/><path transform="matrix(1.0566 0 0 1.0566 -31.198 24.863)" d="M291.688-437.594a3.313 3.313 0 1 1-6.625 0 3.313 3.313 0 1 1 6.625 0z" fill="url(#eE)"/><g transform="translate(-1)"><path d="M280.47-440.97c-3.58 0-6.47 2.922-6.47 6.5 0 2.372 1.35 4.34 3.25 5.47h6.47c1.9-1.13 3.25-3.13 3.25-5.5 0-3.58-2.922-6.47-6.5-6.47z" fill="#c4c5c2"/><path d="M280.5-441c-3.588 0-6.5 2.912-6.5 6.5 0 2.376 1.345 4.366 3.25 5.5h6.5c1.905-1.134 3.25-3.124 3.25-5.5 0-3.588-2.912-6.5-6.5-6.5z" fill="url(#eF)"/></g><path d="M291.688-437.594a3.313 3.313 0 1 1-6.625 0 3.313 3.313 0 1 1 6.625 0z" transform="translate(9.83 -35.69) scale(.90566)" fill="url(#eG)"/><path d="M292.956-437.334c0 2.685-3.27 3.714-3.27 3.714s2.35-1.626 2.338-3.705l.932-.01z" fill="#888a85" fill-rule="evenodd"/><g transform="matrix(1.14286 0 0 1.14286 -28.57 67)"><path d="M277-437.5a3.5 3.5 0 1 1-7 0 3.5 3.5 0 1 1 7 0z" fill="#c4c5c2"/><path transform="matrix(1.0566 0 0 1.0566 -31.198 24.863)" d="M291.688-437.594a3.313 3.313 0 1 1-6.625 0 3.313 3.313 0 1 1 6.625 0z" fill="url(#eH)"/></g></g><g transform="translate(23 158)"><path d="M280.5-445.5c-2.27 0-4.11 1.55-4.72 3.625-.692-.364-1.443-.625-2.28-.625-2.76 0-5 2.24-5 5 0 .58.163 1.108.344 1.625-1.374.77-2.344 2.19-2.344 3.875 0 2.484 2.016 4.5 4.5 4.5h19c2.484 0 4.5-2.016 4.5-4.5 0-1.686-.97-3.104-2.344-3.875.18-.517.344-1.046.344-1.625 0-2.76-2.24-5-5-5-.837 0-1.588.26-2.28.625-.61-2.075-2.45-3.625-4.72-3.625z" fill="#c4c5c2" stroke="#888a85" stroke-miterlimit="2"/><path d="M280.5-445c-2.19 0-3.724 1.336-4.396 3.844-.668-.344-1.547-.834-2.354-.834-2.717 0-4.755 1.94-4.755 4.546 0 .546.267 1.333.442 1.822-1.325.728-2.437 1.89-2.437 3.372 0 2.346 1.546 4.25 4.34 4.25h18.32c2.772 0 4.34-1.904 4.34-4.25 0-1.592-1.112-2.666-2.437-3.394.175-.49.464-1.254.464-1.8 0-2.607-2.116-4.568-4.777-4.568-.807 0-1.642.49-2.31.833-.65-2.42-2.25-3.82-4.44-3.82z" fill="url(#eI)"/><path d="M284-440.5a3.5 3.5 0 1 1-7 0 3.5 3.5 0 1 1 7 0z" fill="#c4c5c2"/><path transform="matrix(1.0566 0 0 1.0566 -24.198 21.863)" d="M291.688-437.594a3.313 3.313 0 1 1-6.625 0 3.313 3.313 0 1 1 6.625 0z" fill="url(#eJ)"/><path fill="#c4c5c2" d="M271-438h20v9h-20z"/><path d="M274-432a3 3 0 1 1-6 0 3 3 0 1 1 6 0zM291-437.5a3.5 3.5 0 1 1-7 0 3.5 3.5 0 1 1 7 0z" fill="#c4c5c2"/><path transform="matrix(1.0566 0 0 1.0566 -17.198 24.863)" d="M291.688-437.594a3.313 3.313 0 1 1-6.625 0 3.313 3.313 0 1 1 6.625 0z" fill="url(#eK)"/><path d="M277-437.5a3.5 3.5 0 1 1-7 0 3.5 3.5 0 1 1 7 0z" fill="#c4c5c2"/><path transform="matrix(1.0566 0 0 1.0566 -31.198 24.863)" d="M291.688-437.594a3.313 3.313 0 1 1-6.625 0 3.313 3.313 0 1 1 6.625 0z" fill="url(#eL)"/><g transform="translate(-1)"><path d="M280.47-440.97c-3.58 0-6.47 2.922-6.47 6.5 0 2.372 1.35 4.34 3.25 5.47h6.47c1.9-1.13 3.25-3.13 3.25-5.5 0-3.58-2.922-6.47-6.5-6.47z" fill="#c4c5c2"/><path d="M280.5-441c-3.588 0-6.5 2.912-6.5 6.5 0 2.376 1.345 4.366 3.25 5.5h6.5c1.905-1.134 3.25-3.124 3.25-5.5 0-3.588-2.912-6.5-6.5-6.5z" fill="url(#eM)"/></g><path d="M291.688-437.594a3.313 3.313 0 1 1-6.625 0 3.313 3.313 0 1 1 6.625 0z" transform="translate(9.83 -35.69) scale(.90566)" fill="url(#eN)"/><path d="M292.956-437.334c0 2.685-3.27 3.714-3.27 3.714s2.35-1.626 2.338-3.705l.932-.01z" fill="#888a85" fill-rule="evenodd"/><g transform="matrix(1.14286 0 0 1.14286 -28.57 67)"><path d="M277-437.5a3.5 3.5 0 1 1-7 0 3.5 3.5 0 1 1 7 0z" fill="#c4c5c2"/><path transform="matrix(1.0566 0 0 1.0566 -31.198 24.863)" d="M291.688-437.594a3.313 3.313 0 1 1-6.625 0 3.313 3.313 0 1 1 6.625 0z" fill="url(#eO)"/></g></g></g></svg>