<?xml version="1.0" encoding="UTF-8" standalone="no"?><svg xmlns="http://www.w3.org/2000/svg" xmlns:xlink="http://www.w3.org/1999/xlink" width="44" height="49" version="1" viewBox="0 0 44 49"><defs><linearGradient xlink:href="#ka" id="kE" gradientUnits="userSpaceOnUse" gradientTransform="matrix(-.0536 .10285 -.0928 -.05938 198.905 -255.69)" x1="6.894" y1="-359.824" x2="27.4" y2="-381.302"/><radialGradient xlink:href="#kb" id="kD" gradientUnits="userSpaceOnUse" gradientTransform="matrix(.07065 .04155 -.062 .1094 207.476 -189.818)" cx="21.92" cy="-382.965" fx="21.92" fy="-382.965" r="21.744"/><linearGradient xlink:href="#kc" id="kX" gradientUnits="userSpaceOnUse" x1="284.802" y1="-441.233" x2="288.9" y2="-436.831"/><linearGradient xlink:href="#kd" id="kW" gradientUnits="userSpaceOnUse" x1="286.666" y1="-439.484" x2="289.766" y2="-436.707"/><linearGradient xlink:href="#ke" id="kV" gradientUnits="userSpaceOnUse" gradientTransform="translate(-35 207)" x1="275.942" y1="-437.105" x2="279.975" y2="-431.918"/><linearGradient xlink:href="#kc" id="kU" gradientUnits="userSpaceOnUse" x1="285.941" y1="-439.939" x2="289.391" y2="-436.443"/><linearGradient xlink:href="#kf" id="kT" gradientUnits="userSpaceOnUse" x1="286.512" y1="-441.291" x2="289.854" y2="-436.145"/><linearGradient xlink:href="#kg" id="kS" gradientUnits="userSpaceOnUse" x1="287.517" y1="-439.753" x2="289.676" y2="-436.322"/><linearGradient xlink:href="#kh" id="kR" gradientUnits="userSpaceOnUse" gradientTransform="translate(-34 207)" x1="271.022" y1="-441.052" x2="285.029" y2="-431.97"/><linearGradient xlink:href="#kc" id="kQ" gradientUnits="userSpaceOnUse" x1="284.802" y1="-441.233" x2="288.9" y2="-436.831"/><linearGradient xlink:href="#kd" id="kP" gradientUnits="userSpaceOnUse" x1="286.666" y1="-439.484" x2="289.766" y2="-436.707"/><linearGradient xlink:href="#ke" id="kO" gradientUnits="userSpaceOnUse" gradientTransform="translate(-35 207)" x1="275.942" y1="-437.105" x2="279.975" y2="-431.918"/><linearGradient xlink:href="#kc" id="kN" gradientUnits="userSpaceOnUse" x1="285.941" y1="-439.939" x2="289.391" y2="-436.443"/><linearGradient xlink:href="#kf" id="kM" gradientUnits="userSpaceOnUse" x1="286.512" y1="-441.291" x2="289.854" y2="-436.145"/><linearGradient xlink:href="#kg" id="kL" gradientUnits="userSpaceOnUse" x1="287.517" y1="-439.753" x2="289.676" y2="-436.322"/><linearGradient xlink:href="#kh" id="kK" gradientUnits="userSpaceOnUse" gradientTransform="translate(-34 207)" x1="271.022" y1="-441.052" x2="285.029" y2="-431.97"/><linearGradient xlink:href="#ki" id="kJ" gradientUnits="userSpaceOnUse" x1="238.005" y1="-388.475" x2="245.655" y2="-382.645"/><linearGradient xlink:href="#kj" id="kI" gradientUnits="userSpaceOnUse" x1="230.876" y1="-390.44" x2="235.257" y2="-386.959"/><linearGradient xlink:href="#kk" id="kH" gradientUnits="userSpaceOnUse" x1="246.74" y1="-391.314" x2="252.698" y2="-385.352"/><linearGradient xlink:href="#kl" id="kG" gradientUnits="userSpaceOnUse" x1="240.074" y1="-393.407" x2="245.827" y2="-388.55"/><linearGradient xlink:href="#km" id="kF" gradientUnits="userSpaceOnUse" gradientTransform="translate(69 155)" x1="228.503" y1="-392.306" x2="266.364" y2="-379.269"/><linearGradient xlink:href="#ka" id="kak" gradientUnits="userSpaceOnUse" gradientTransform="matrix(-.0536 .10285 -.0928 -.05938 198.905 -255.69)" x1="6.894" y1="-359.824" x2="27.4" y2="-381.302"/><radialGradient xlink:href="#kb" id="kaj" gradientUnits="userSpaceOnUse" gradientTransform="matrix(.07065 .04155 -.062 .1094 207.476 -189.818)" cx="21.92" cy="-382.965" fx="21.92" fy="-382.965" r="21.744"/><linearGradient xlink:href="#ka" id="kad" gradientUnits="userSpaceOnUse" gradientTransform="matrix(-.0536 .10285 -.0928 -.05938 198.905 -255.69)" x1="6.894" y1="-359.824" x2="27.4" y2="-381.302"/><radialGradient xlink:href="#kb" id="kac" gradientUnits="userSpaceOnUse" gradientTransform="matrix(.07065 .04155 -.062 .1094 207.476 -189.818)" cx="21.92" cy="-382.965" fx="21.92" fy="-382.965" r="21.744"/><linearGradient xlink:href="#ka" id="kZ" gradientUnits="userSpaceOnUse" gradientTransform="matrix(-.0536 .10285 -.0928 -.05938 198.905 -255.69)" x1="6.894" y1="-359.824" x2="27.4" y2="-381.302"/><radialGradient xlink:href="#kb" id="kY" gradientUnits="userSpaceOnUse" gradientTransform="matrix(.07065 .04155 -.062 .1094 207.476 -189.818)" cx="21.92" cy="-382.965" fx="21.92" fy="-382.965" r="21.744"/><linearGradient xlink:href="#ka" id="kah" gradientUnits="userSpaceOnUse" gradientTransform="matrix(-.0536 .10285 -.0928 -.05938 198.905 -255.69)" x1="6.894" y1="-359.824" x2="27.4" y2="-381.302"/><radialGradient xlink:href="#kb" id="kag" gradientUnits="userSpaceOnUse" gradientTransform="matrix(.07065 .04155 -.062 .1094 207.476 -189.818)" cx="21.92" cy="-382.965" fx="21.92" fy="-382.965" r="21.744"/><linearGradient id="ka"><stop offset="0" stop-color="#fff"/><stop offset="1" stop-color="#fff" stop-opacity="0"/></linearGradient><linearGradient xlink:href="#ka" id="kan" gradientUnits="userSpaceOnUse" gradientTransform="matrix(-.0536 .10285 -.0928 -.05938 198.905 -255.69)" x1="6.894" y1="-359.824" x2="27.4" y2="-381.302"/><linearGradient id="kb"><stop offset="0" stop-color="#fff"/><stop offset="1" stop-color="#fff" stop-opacity="0"/></linearGradient><radialGradient xlink:href="#kb" id="kam" gradientUnits="userSpaceOnUse" gradientTransform="matrix(.07065 .04155 -.062 .1094 207.476 -189.818)" cx="21.92" cy="-382.965" fx="21.92" fy="-382.965" r="21.744"/><linearGradient id="kd"><stop offset="0" stop-color="#fff"/><stop offset="1" stop-color="#fff" stop-opacity="0"/></linearGradient><linearGradient id="ke"><stop offset="0" stop-color="#fff"/><stop offset="1" stop-color="#fff" stop-opacity="0"/></linearGradient><linearGradient id="kc"><stop offset="0" stop-color="#fff"/><stop offset="1" stop-color="#fff" stop-opacity="0"/></linearGradient><linearGradient id="kf"><stop offset="0" stop-color="#fff"/><stop offset="1" stop-color="#fff" stop-opacity="0"/></linearGradient><linearGradient id="kg"><stop offset="0" stop-color="#fff"/><stop offset="1" stop-color="#fff" stop-opacity="0"/></linearGradient><linearGradient id="kh"><stop offset="0" stop-color="#fff"/><stop offset="1" stop-color="#fff" stop-opacity="0"/></linearGradient><linearGradient id="ki"><stop offset="0" stop-color="#fff"/><stop offset="1" stop-color="#fff" stop-opacity="0"/></linearGradient><linearGradient id="kj"><stop offset="0" stop-color="#fff"/><stop offset="1" stop-color="#fff" stop-opacity="0"/></linearGradient><linearGradient id="kk"><stop offset="0" stop-color="#fff"/><stop offset="1" stop-color="#fff" stop-opacity="0"/></linearGradient><linearGradient id="kl"><stop offset="0" stop-color="#fff"/><stop offset="1" stop-color="#fff" stop-opacity="0"/></linearGradient><linearGradient id="km"><stop offset="0" stop-color="#fff"/><stop offset="1" stop-color="#fff" stop-opacity="0"/></linearGradient><linearGradient id="ko"><stop offset="0" stop-color="#fff"/><stop offset="1" stop-color="#fff" stop-opacity="0"/></linearGradient><linearGradient id="kq"><stop offset="0" stop-color="#fff"/><stop offset="1" stop-color="#fff" stop-opacity="0"/></linearGradient><linearGradient id="kp"><stop offset="0" stop-color="#fff"/><stop offset="1" stop-color="#fff" stop-opacity="0"/></linearGradient><linearGradient id="kr" gradientUnits="userSpaceOnUse" x1="4.191" y1="11.113" x2="47.32" y2="56.052"><stop offset="0" stop-color="#fff"/><stop offset="1" stop-color="#fff" stop-opacity=".34"/></linearGradient><linearGradient id="kx"><stop offset="0" stop-color="#fff"/><stop offset="1" stop-color="#fff" stop-opacity="0"/></linearGradient><linearGradient id="kw"><stop offset="0" stop-color="#fff"/><stop offset="1" stop-color="#fff" stop-opacity="0"/></linearGradient><linearGradient id="kv"><stop offset="0" stop-color="#edd400"/><stop offset="1" stop-color="#edd400" stop-opacity="0"/></linearGradient><linearGradient id="ku"><stop offset="0" stop-color="#fcaf3e"/><stop offset="1" stop-color="#fcaf3e" stop-opacity="0"/></linearGradient><linearGradient id="kt"><stop offset="0" stop-color="#fce94f"/><stop offset="1" stop-color="#fce94f" stop-opacity="0"/></linearGradient><linearGradient id="ks"><stop offset="0" stop-color="#eeeeec"/><stop offset="1" stop-color="#eeeeec" stop-opacity="0"/></linearGradient><linearGradient id="kn"><stop offset="0" stop-color="#fff"/><stop offset="1" stop-color="#fff" stop-opacity="0"/></linearGradient><linearGradient id="kz"><stop offset="0" stop-color="#fff"/><stop offset="1" stop-color="#fff" stop-opacity="0"/></linearGradient><linearGradient id="ky"><stop offset="0" stop-color="#ad7fa8"/><stop offset="1" stop-color="#ad7fa8" stop-opacity="0"/></linearGradient><linearGradient id="kA"><stop offset="0" stop-color="#fff"/><stop offset="1" stop-color="#fff" stop-opacity="0"/></linearGradient><linearGradient id="kB"><stop offset="0" stop-color="#fcaf3e"/><stop offset="1" stop-color="#fcaf3e" stop-opacity="0"/></linearGradient><linearGradient id="kC"><stop offset="0" stop-color="#fff"/><stop offset="1" stop-color="#fff" stop-opacity="0"/></linearGradient><linearGradient xlink:href="#kB" id="kae" gradientUnits="userSpaceOnUse" gradientTransform="translate(13.805 2.84)" x1="-191.289" y1="-328.079" x2="-192.414" y2="-315.329"/><linearGradient xlink:href="#kC" id="kaf" gradientUnits="userSpaceOnUse" gradientTransform="translate(14.16 7.083)" x1="-190.477" y1="-332.512" x2="-196.19" y2="-328.534"/><linearGradient xlink:href="#kB" id="kaa" gradientUnits="userSpaceOnUse" gradientTransform="translate(13.805 2.84)" x1="-191.289" y1="-328.079" x2="-192.414" y2="-315.329"/><linearGradient xlink:href="#kC" id="kab" gradientUnits="userSpaceOnUse" gradientTransform="translate(14.16 7.083)" x1="-190.477" y1="-332.512" x2="-196.19" y2="-328.534"/><radialGradient xlink:href="#kA" id="kai" gradientUnits="userSpaceOnUse" gradientTransform="matrix(.93095 0 0 .44824 230.428 180.927)" cx="-229.75" cy="-343.956" fx="-229.75" fy="-343.956" r="14.501"/><radialGradient xlink:href="#kA" id="kal" gradientUnits="userSpaceOnUse" gradientTransform="matrix(.93095 0 0 .44824 246.438 184.927)" cx="-229.75" cy="-343.956" fx="-229.75" fy="-343.956" r="14.501"/></defs><g transform="translate(-2.043 -2)"><g transform="translate(-207 271)"><path d="M231.626-228.77c-1.04-.597-1.396-1.918-.796-2.95 1.332-2.082 3.105-1.546 4.012-3.74 1.26 1.332.793 8.246-3.216 6.69z" fill="#729fcf" stroke="#204a87" stroke-width="1.075" stroke-miterlimit="2"/><path d="M234.31-229.904c-.49.864-1.575 1.16-2.423.662-.848-.5-1.14-1.605-.65-2.468.49-.864 2.607-.452 3.347-2.29.848.5.216 3.233-.274 4.096z" opacity=".461" fill="url(#kD)"/><path d="M233.022-229c-4.614-1.074.238-4.72.978-3.922-3.582 1.37-.978 3.922-.978 3.922z" fill="url(#kE)"/></g><g transform="matrix(.99967 0 0 1 -286.848 245)"><path d="M311.5-243c-2.772 0-5.108 1.574-6.406 3.813-.945-.476-1.965-.813-3.094-.813-3.864 0-7 3.136-7 7s3.136 7 7 7c2.42 0 4.43-1.32 5.688-3.187 1.134.69 2.388 1.187 3.812 1.187.913 0 1.753-.232 2.563-.53.51.867 1.18 1.578 2 2.155-.008.13-.063.243-.063.375 0 3.864 3.136 7 7 7s7-3.136 7-7c0-2.37-1.26-4.358-3.063-5.625.008-.13.063-.243.063-.375 0-3.864-3.136-7-7-7-.623 0-1.175.222-1.75.375-1.195-2.56-3.74-4.375-6.75-4.375z" fill="#555753"/><path d="M311.5-242c-2.78 0-5.135 1.762-6.063 4.22-.985-.71-2.13-1.22-3.437-1.22-3.312 0-6 2.688-6 6s2.688 6 6 6c2.428 0 4.493-1.456 5.438-3.53 1.12.916 2.502 1.53 4.062 1.53 1.075 0 2.044-.32 2.938-.78.398 1 1.1 1.785 1.937 2.436-.18.596-.375 1.19-.375 1.844 0 3.588 2.912 6.5 6.5 6.5s6.5-2.912 6.5-6.5c0-2.36-1.334-4.33-3.22-5.47.064-.346.22-.665.22-1.03 0-3.312-2.688-6-6-6-.853 0-1.67.18-2.406.5-.854-2.594-3.215-4.5-6.094-4.5z" fill="url(#kF)"/><path d="M329-225.5a6.5 6.5 0 1 1-13 0 6.5 6.5 0 1 1 13 0zM317-235.5a5.5 5.5 0 1 1-11 0 5.5 5.5 0 1 1 11 0z" fill="#888a85"/><path transform="translate(96.18 108.11) scale(.88263)" d="M250.183-389.3a6.23 6.23 0 1 1-12.463 0 6.23 6.23 0 1 1 12.463 0z" opacity=".494" fill="url(#kG)"/><path d="M325-231.5a5.5 5.5 0 1 1-11 0 5.5 5.5 0 1 1 11 0z" fill="#888a85"/><path transform="matrix(.91173 0 0 .91173 90.454 120.234)" d="M257.254-385.788a6.033 6.033 0 1 1-12.065 0 6.033 6.033 0 1 1 12.064 0z" opacity=".494" fill="url(#kH)"/><g><path d="M307-233a5 5 0 1 1-10 0 5 5 0 1 1 10 0z" fill="#888a85"/><path transform="matrix(1.1428 0 0 1.1428 35.232 210.277)" d="M237.81-387.887a4.375 4.375 0 1 1-8.752 0 4.375 4.375 0 1 1 8.75 0z" opacity=".494" fill="url(#kI)"/></g><g><path d="M318-229a7 7 0 1 1-14 0 7 7 0 1 1 14 0z" fill="#888a85"/><path transform="matrix(1.03864 0 0 1.03864 59.85 169.49)" d="M248.548-383.667a6.74 6.74 0 1 1-13.48 0 6.74 6.74 0 1 1 13.48 0z" opacity=".494" fill="url(#kJ)"/></g><g transform="translate(72 8)"><path d="M246.5-238.5c-2.27 0-4.11 1.55-4.72 3.625-.692-.364-1.443-.625-2.28-.625-2.76 0-5 2.24-5 5 0 .58.162 1.108.344 1.625-1.374.77-2.344 2.19-2.344 3.875 0 2.484 2.016 4.5 4.5 4.5h19c2.484 0 4.5-2.016 4.5-4.5 0-1.686-.97-3.104-2.344-3.875.18-.517.344-1.046.344-1.625 0-2.76-2.24-5-5-5-.837 0-1.588.26-2.28.625-.61-2.075-2.45-3.625-4.72-3.625z" fill="#888a85" stroke="#555753" stroke-miterlimit="2"/><path d="M246.5-238c-2.19 0-3.724 1.336-4.396 3.844-.668-.344-1.547-.834-2.354-.834-2.717 0-4.755 1.94-4.755 4.546 0 .547.267 1.333.442 1.822-1.325.728-2.437 1.89-2.437 3.372 0 2.346 1.546 4.25 4.34 4.25h18.32c2.772 0 4.34-1.904 4.34-4.25 0-1.592-1.112-2.666-2.437-3.394.175-.49.464-1.253.464-1.8 0-2.607-2.116-4.568-4.777-4.568-.807 0-1.642.49-2.31.833-.65-2.42-2.25-3.82-4.44-3.82z" fill="url(#kK)"/><path d="M250-233.5a3.5 3.5 0 1 1-7 0 3.5 3.5 0 1 1 7 0z" fill="#888a85"/><path d="M291.688-437.594a3.313 3.313 0 1 1-6.625 0 3.313 3.313 0 1 1 6.625 0z" transform="matrix(1.0566 0 0 1.0566 -58.198 228.863)" opacity=".478" fill="url(#kL)"/><path fill="#888a85" d="M237-231h20v9h-20z"/><path d="M240-225a3 3 0 1 1-6 0 3 3 0 1 1 6 0zM257-230.5a3.5 3.5 0 1 1-7 0 3.5 3.5 0 1 1 7 0z" fill="#888a85"/><path d="M291.688-437.594a3.313 3.313 0 1 1-6.625 0 3.313 3.313 0 1 1 6.625 0z" transform="matrix(1.0566 0 0 1.0566 -51.198 231.863)" opacity=".478" fill="url(#kM)"/><path d="M243-230.5a3.5 3.5 0 1 1-7 0 3.5 3.5 0 1 1 7 0z" fill="#888a85"/><path d="M291.688-437.594a3.313 3.313 0 1 1-6.625 0 3.313 3.313 0 1 1 6.625 0z" transform="matrix(1.0566 0 0 1.0566 -65.198 231.863)" opacity=".478" fill="url(#kN)"/><path d="M245.47-233.97c-3.58 0-6.47 2.922-6.47 6.5 0 2.372 1.35 4.34 3.25 5.47h6.47c1.9-1.13 3.25-3.13 3.25-5.5 0-3.58-2.922-6.47-6.5-6.47z" fill="#888a85"/><path d="M245.5-234c-3.588 0-6.5 2.912-6.5 6.5 0 2.376 1.345 4.366 3.25 5.5h6.5c1.905-1.134 3.25-3.124 3.25-5.5 0-3.588-2.912-6.5-6.5-6.5z" opacity=".478" fill="url(#kO)"/><path d="M291.688-437.594a3.313 3.313 0 1 1-6.625 0 3.313 3.313 0 1 1 6.625 0z" transform="translate(-24.17 171.31) scale(.90566)" opacity=".478" fill="url(#kP)"/><path d="M258.956-230.334c0 2.685-3.27 3.714-3.27 3.714s2.35-1.626 2.338-3.705l.932-.01z" fill="#555753" fill-rule="evenodd"/><path d="M254-226a4 4 0 1 1-8 0 4 4 0 1 1 8 0z" fill="#888a85"/><path d="M291.688-437.594a3.313 3.313 0 1 1-6.625 0 3.313 3.313 0 1 1 6.625 0z" transform="matrix(1.20755 0 0 1.20755 -98.227 302.415)" opacity=".478" fill="url(#kQ)"/></g><g transform="translate(56.986 3.984)"><path d="M246.5-238.5c-2.27 0-4.11 1.55-4.72 3.625-.692-.364-1.443-.625-2.28-.625-2.76 0-5 2.24-5 5 0 .58.162 1.108.344 1.625-1.374.77-2.344 2.19-2.344 3.875 0 2.484 2.016 4.5 4.5 4.5h19c2.484 0 4.5-2.016 4.5-4.5 0-1.686-.97-3.104-2.344-3.875.18-.517.344-1.046.344-1.625 0-2.76-2.24-5-5-5-.837 0-1.588.26-2.28.625-.61-2.075-2.45-3.625-4.72-3.625z" fill="#888a85" stroke="#555753" stroke-miterlimit="2"/><path d="M246.5-238c-2.19 0-3.724 1.336-4.396 3.844-.668-.344-1.547-.834-2.354-.834-2.717 0-4.755 1.94-4.755 4.546 0 .547.267 1.333.442 1.822-1.325.728-2.437 1.89-2.437 3.372 0 2.346 1.546 4.25 4.34 4.25h18.32c2.772 0 4.34-1.904 4.34-4.25 0-1.592-1.112-2.666-2.437-3.394.175-.49.464-1.253.464-1.8 0-2.607-2.116-4.568-4.777-4.568-.807 0-1.642.49-2.31.833-.65-2.42-2.25-3.82-4.44-3.82z" fill="url(#kR)"/><path d="M250-233.5a3.5 3.5 0 1 1-7 0 3.5 3.5 0 1 1 7 0z" fill="#888a85"/><path d="M291.688-437.594a3.313 3.313 0 1 1-6.625 0 3.313 3.313 0 1 1 6.625 0z" transform="matrix(1.0566 0 0 1.0566 -58.198 228.863)" opacity=".478" fill="url(#kS)"/><path fill="#888a85" d="M237-231h20v9h-20z"/><path d="M240-225a3 3 0 1 1-6 0 3 3 0 1 1 6 0zM257-230.5a3.5 3.5 0 1 1-7 0 3.5 3.5 0 1 1 7 0z" fill="#888a85"/><path d="M291.688-437.594a3.313 3.313 0 1 1-6.625 0 3.313 3.313 0 1 1 6.625 0z" transform="matrix(1.0566 0 0 1.0566 -51.198 231.863)" opacity=".478" fill="url(#kT)"/><path d="M243-230.5a3.5 3.5 0 1 1-7 0 3.5 3.5 0 1 1 7 0z" fill="#888a85"/><path d="M291.688-437.594a3.313 3.313 0 1 1-6.625 0 3.313 3.313 0 1 1 6.625 0z" transform="matrix(1.0566 0 0 1.0566 -65.198 231.863)" opacity=".478" fill="url(#kU)"/><path d="M245.47-233.97c-3.58 0-6.47 2.922-6.47 6.5 0 2.372 1.35 4.34 3.25 5.47h6.47c1.9-1.13 3.25-3.13 3.25-5.5 0-3.58-2.922-6.47-6.5-6.47z" fill="#888a85"/><path d="M245.5-234c-3.588 0-6.5 2.912-6.5 6.5 0 2.376 1.345 4.366 3.25 5.5h6.5c1.905-1.134 3.25-3.124 3.25-5.5 0-3.588-2.912-6.5-6.5-6.5z" opacity=".478" fill="url(#kV)"/><path d="M291.688-437.594a3.313 3.313 0 1 1-6.625 0 3.313 3.313 0 1 1 6.625 0z" transform="translate(-24.17 171.31) scale(.90566)" opacity=".478" fill="url(#kW)"/><path d="M258.956-230.334c0 2.685-3.27 3.714-3.27 3.714s2.35-1.626 2.338-3.705l.932-.01z" fill="#555753" fill-rule="evenodd"/><path d="M254-226a4 4 0 1 1-8 0 4 4 0 1 1 8 0z" fill="#888a85"/><path d="M291.688-437.594a3.313 3.313 0 1 1-6.625 0 3.313 3.313 0 1 1 6.625 0z" transform="matrix(1.20755 0 0 1.20755 -98.227 302.415)" opacity=".478" fill="url(#kX)"/></g></g><g transform="translate(-224.955 271.008)"><path d="M231.626-228.77c-1.04-.597-1.396-1.918-.796-2.95 1.332-2.082 3.105-1.546 4.012-3.74 1.26 1.332.793 8.246-3.216 6.69z" fill="#729fcf" stroke="#204a87" stroke-width="1.075" stroke-miterlimit="2"/><path d="M234.31-229.904c-.49.864-1.575 1.16-2.423.662-.848-.5-1.14-1.605-.65-2.468.49-.864 2.607-.452 3.347-2.29.848.5.216 3.233-.274 4.096z" opacity=".461" fill="url(#kY)"/><path d="M233.022-229c-4.614-1.074.238-4.72.978-3.922-3.582 1.37-.978 3.922-.978 3.922z" fill="url(#kZ)"/></g><g transform="translate(210.877 360.886)" fill-rule="evenodd"><path d="M-173.246-327.59l-3.124 4.278h3.78s-2.704 4.526-7.576 12.926c2.096-7.947 2.952-10.97 2.952-10.97h-5.163l4.043-6.235h5.088z" fill="#edd400" stroke="url(#kaa)"/><path d="M-173.76-327.845l-3.743 5.163 3.957-.176s-.14.46-5.013 8.86c2.097-7.947 2.07-7.965 2.07-7.965l-4.898.09 3.69-5.706 3.94-.265z" fill="url(#kab)"/></g><g transform="translate(-193.957 268.007)"><path d="M231.626-228.77c-1.04-.597-1.396-1.918-.796-2.95 1.332-2.082 3.105-1.546 4.012-3.74 1.26 1.332.793 8.246-3.216 6.69z" fill="#729fcf" stroke="#204a87" stroke-width="1.075" stroke-miterlimit="2"/><path d="M234.31-229.904c-.49.864-1.575 1.16-2.423.662-.848-.5-1.14-1.605-.65-2.468.49-.864 2.607-.452 3.347-2.29.848.5.216 3.233-.274 4.096z" opacity=".461" fill="url(#kac)"/><path d="M233.022-229c-4.614-1.074.238-4.72.978-3.922-3.582 1.37-.978 3.922-.978 3.922z" fill="url(#kad)"/></g><g transform="translate(192.645 357.09)" fill-rule="evenodd"><path d="M-173.246-327.59l-3.124 4.278h3.78s-2.704 4.526-7.576 12.926c2.096-7.947 2.952-10.97 2.952-10.97h-5.163l4.043-6.235h5.088z" fill="#edd400" stroke="url(#kae)"/><path d="M-173.76-327.845l-3.743 5.163 3.957-.176s-.14.46-5.013 8.86c2.097-7.947 2.07-7.965 2.07-7.965l-4.898.09 3.69-5.706 3.94-.265z" fill="url(#kaf)"/></g><g transform="translate(-214.957 266.007)"><path d="M231.626-228.77c-1.04-.597-1.396-1.918-.796-2.95 1.332-2.082 3.105-1.546 4.012-3.74 1.26 1.332.793 8.246-3.216 6.69z" fill="#729fcf" stroke="#204a87" stroke-width="1.075" stroke-miterlimit="2"/><path d="M234.31-229.904c-.49.864-1.575 1.16-2.423.662-.848-.5-1.14-1.605-.65-2.468.49-.864 2.607-.452 3.347-2.29.848.5.216 3.233-.274 4.096z" opacity=".461" fill="url(#kag)"/><path d="M233.022-229c-4.614-1.074.238-4.72.978-3.922-3.582 1.37-.978 3.922-.978 3.922z" fill="url(#kah)"/></g><path d="M16.69 11c-2 0-3.685 1.08-4.53 2.615-.595-.22-1.245-.353-1.926-.353-2.83 0-5.118 2.118-5.118 4.718 0 .453.145.856.275 1.272-1.38.865-2.347 2.253-2.347 3.904 0 2.653.652 4.994 5.228 4.806.046-.002 17.452.097 17.7-.018 3.087.226 4.073-2.445 4.073-4.7 0-1.7-.837-3.05-2.31-3.877.05-.258-.037-.55-.037-.822 0-2.6-2.306-4.718-5.136-4.718-.394 0-.733.135-1.1.212-.74-1.77-2.586-3.04-4.77-3.04z" fill="url(#kai)"/><g transform="translate(-222.955 261.014)"><path d="M231.626-228.77c-1.04-.597-1.396-1.918-.796-2.95 1.332-2.082 3.105-1.546 4.012-3.74 1.26 1.332.793 8.246-3.216 6.69z" fill="#729fcf" stroke="#204a87" stroke-width="1.075" stroke-miterlimit="2"/><path d="M234.31-229.904c-.49.864-1.575 1.16-2.423.662-.848-.5-1.14-1.605-.65-2.468.49-.864 2.607-.452 3.347-2.29.848.5.216 3.233-.274 4.096z" opacity=".461" fill="url(#kaj)"/><path d="M233.022-229c-4.614-1.074.238-4.72.978-3.922-3.582 1.37-.978 3.922-.978 3.922z" fill="url(#kak)"/></g><path d="M32.7 15c-2 0-3.686 1.08-4.53 2.615-.596-.22-1.246-.353-1.927-.353-2.83 0-5.117 2.118-5.117 4.718 0 .453.144.856.275 1.272-1.382.865-2.347 2.253-2.347 3.904 0 2.653.652 4.994 5.228 4.806.046-.002 17.452.097 17.7-.018 3.086.226 4.073-2.445 4.073-4.7 0-1.7-.837-3.05-2.31-3.877.05-.258-.038-.55-.038-.822 0-2.6-2.306-4.718-5.136-4.718-.394 0-.733.135-1.1.212-.74-1.77-2.586-3.04-4.77-3.04z" fill="url(#kal)"/><g transform="translate(-200.957 261.014)"><path d="M231.626-228.77c-1.04-.597-1.396-1.918-.796-2.95 1.332-2.082 3.105-1.546 4.012-3.74 1.26 1.332.793 8.246-3.216 6.69z" fill="#729fcf" stroke="#204a87" stroke-width="1.075" stroke-miterlimit="2"/><path d="M234.31-229.904c-.49.864-1.575 1.16-2.423.662-.848-.5-1.14-1.605-.65-2.468.49-.864 2.607-.452 3.347-2.29.848.5.216 3.233-.274 4.096z" opacity=".461" fill="url(#kam)"/><path d="M233.022-229c-4.614-1.074.238-4.72.978-3.922-3.582 1.37-.978 3.922-.978 3.922z" fill="url(#kan)"/></g></g></svg>