<?xml version="1.0" encoding="UTF-8" standalone="no"?><svg xmlns="http://www.w3.org/2000/svg" xmlns:xlink="http://www.w3.org/1999/xlink" width="48" height="48" viewBox="0 0 48 48"><defs><linearGradient xlink:href="#ca" id="cz" gradientUnits="userSpaceOnUse" x1="284.802" y1="-441.233" x2="288.9" y2="-436.831"/><linearGradient xlink:href="#cb" id="cy" gradientUnits="userSpaceOnUse" x1="286.666" y1="-439.484" x2="289.766" y2="-436.707"/><linearGradient xlink:href="#cc" id="cx" gradientUnits="userSpaceOnUse" x1="275.942" y1="-437.105" x2="279.975" y2="-431.918"/><linearGradient xlink:href="#ca" id="cw" gradientUnits="userSpaceOnUse" x1="285.941" y1="-439.939" x2="289.391" y2="-436.443"/><linearGradient xlink:href="#cd" id="cv" gradientUnits="userSpaceOnUse" x1="286.512" y1="-441.291" x2="289.854" y2="-436.145"/><linearGradient xlink:href="#ce" id="cu" gradientUnits="userSpaceOnUse" x1="287.517" y1="-439.753" x2="289.676" y2="-436.322"/><linearGradient xlink:href="#cf" id="ct" gradientUnits="userSpaceOnUse" x1="271.022" y1="-441.052" x2="285.029" y2="-431.97"/><linearGradient xlink:href="#ca" id="cp" gradientUnits="userSpaceOnUse" x1="284.802" y1="-441.233" x2="288.9" y2="-436.831"/><linearGradient id="cb"><stop offset="0" stop-color="#fff"/><stop offset="1" stop-color="#fff" stop-opacity="0"/></linearGradient><linearGradient xlink:href="#cb" id="co" gradientUnits="userSpaceOnUse" x1="286.666" y1="-439.484" x2="289.766" y2="-436.707"/><linearGradient id="cc"><stop offset="0" stop-color="#fff"/><stop offset="1" stop-color="#fff" stop-opacity="0"/></linearGradient><linearGradient xlink:href="#cc" id="cn" gradientUnits="userSpaceOnUse" x1="275.942" y1="-437.105" x2="279.975" y2="-431.918"/><linearGradient id="ca"><stop offset="0" stop-color="#fff"/><stop offset="1" stop-color="#fff" stop-opacity="0"/></linearGradient><linearGradient xlink:href="#ca" id="cm" gradientUnits="userSpaceOnUse" x1="285.941" y1="-439.939" x2="289.391" y2="-436.443"/><linearGradient id="cd"><stop offset="0" stop-color="#fff"/><stop offset="1" stop-color="#fff" stop-opacity="0"/></linearGradient><linearGradient xlink:href="#cd" id="cl" gradientUnits="userSpaceOnUse" x1="286.512" y1="-441.291" x2="289.854" y2="-436.145"/><linearGradient id="ce"><stop offset="0" stop-color="#fff"/><stop offset="1" stop-color="#fff" stop-opacity="0"/></linearGradient><linearGradient xlink:href="#ce" id="ck" gradientUnits="userSpaceOnUse" x1="287.517" y1="-439.753" x2="289.676" y2="-436.322"/><linearGradient id="cf"><stop offset="0" stop-color="#fff"/><stop offset="1" stop-color="#fff" stop-opacity="0"/></linearGradient><linearGradient xlink:href="#cf" id="cj" gradientUnits="userSpaceOnUse" x1="271.022" y1="-441.052" x2="285.029" y2="-431.97"/><linearGradient id="ci"><stop offset="0" stop-color="#fff" stop-opacity="0"/><stop offset=".75" stop-color="#fff" stop-opacity="0"/><stop offset="1" stop-color="#fff"/></linearGradient><linearGradient id="ch"><stop offset="0" stop-color="#fff7c2" stop-opacity=".638"/><stop offset=".594" stop-color="#fcaf3e" stop-opacity=".183"/><stop offset=".839" stop-color="#fcaf3e" stop-opacity=".505"/><stop offset="1" stop-color="#fcaf3e"/></linearGradient><linearGradient id="cg"><stop offset="0" stop-color="#fff9c6"/><stop offset=".542" stop-color="#fff28c"/><stop offset="1" stop-color="#ffea85"/></linearGradient><linearGradient xlink:href="#cg" id="cs" gradientUnits="userSpaceOnUse" x1="-28.969" y1="-25.327" x2="-37.197" y2="-9.559"/><radialGradient xlink:href="#ch" id="cr" cx="-33.519" cy="-22.113" fx="-33.519" fy="-22.113" r="9.5" gradientUnits="userSpaceOnUse" gradientTransform="matrix(.48774 1.2924 -1.10267 .49724 -41.774 32.415)"/><radialGradient xlink:href="#ci" id="cq" cx="24" cy="23.382" fx="24" fy="23.382" r="19.142" gradientTransform="matrix(1.0067 0 0 1.00752 -.16 .427)" gradientUnits="userSpaceOnUse"/></defs><g transform="translate(-263.99 459.986)"><path d="M280.5-445.5c-2.27 0-4.11 1.55-4.72 3.625-.692-.364-1.443-.625-2.28-.625-2.76 0-5 2.24-5 5 0 .58.163 1.108.344 1.625-1.374.77-2.344 2.19-2.344 3.875 0 2.484 2.016 4.5 4.5 4.5h19c2.484 0 4.5-2.016 4.5-4.5 0-1.686-.97-3.104-2.344-3.875.18-.517.344-1.046.344-1.625 0-2.76-2.24-5-5-5-.837 0-1.588.26-2.28.625-.61-2.075-2.45-3.625-4.72-3.625z" fill="#c4c5c2" stroke="#888a85" stroke-miterlimit="2"/><path d="M280.5-445c-2.19 0-3.724 1.336-4.396 3.844-.668-.344-1.547-.834-2.354-.834-2.717 0-4.755 1.94-4.755 4.546 0 .546.267 1.333.442 1.822-1.325.728-2.437 1.89-2.437 3.372 0 2.346 1.546 4.25 4.34 4.25h18.32c2.772 0 4.34-1.904 4.34-4.25 0-1.592-1.112-2.666-2.437-3.394.175-.49.464-1.254.464-1.8 0-2.607-2.116-4.568-4.777-4.568-.807 0-1.642.49-2.31.833-.65-2.42-2.25-3.82-4.44-3.82z" fill="url(#cj)"/><path d="M284-440.5a3.5 3.5 0 1 1-7 0 3.5 3.5 0 1 1 7 0z" fill="#c4c5c2"/><path d="M291.688-437.594a3.313 3.313 0 1 1-6.625 0 3.313 3.313 0 1 1 6.625 0z" transform="matrix(1.0566 0 0 1.0566 -24.198 21.863)" fill="url(#ck)"/><path fill="#c4c5c2" d="M271-438h20v9h-20z"/><path d="M274-432a3 3 0 1 1-6 0 3 3 0 1 1 6 0zM291-437.5a3.5 3.5 0 1 1-7 0 3.5 3.5 0 1 1 7 0z" fill="#c4c5c2"/><path d="M291.688-437.594a3.313 3.313 0 1 1-6.625 0 3.313 3.313 0 1 1 6.625 0z" transform="matrix(1.0566 0 0 1.0566 -17.198 24.863)" fill="url(#cl)"/><path d="M277-437.5a3.5 3.5 0 1 1-7 0 3.5 3.5 0 1 1 7 0z" fill="#c4c5c2"/><path d="M291.688-437.594a3.313 3.313 0 1 1-6.625 0 3.313 3.313 0 1 1 6.625 0z" transform="matrix(1.0566 0 0 1.0566 -31.198 24.863)" fill="url(#cm)"/><g transform="translate(-1)"><path d="M280.47-440.97c-3.58 0-6.47 2.922-6.47 6.5 0 2.372 1.35 4.34 3.25 5.47h6.47c1.9-1.13 3.25-3.13 3.25-5.5 0-3.58-2.922-6.47-6.5-6.47z" fill="#c4c5c2"/><path d="M280.5-441c-3.588 0-6.5 2.912-6.5 6.5 0 2.376 1.345 4.366 3.25 5.5h6.5c1.905-1.134 3.25-3.124 3.25-5.5 0-3.588-2.912-6.5-6.5-6.5z" fill="url(#cn)"/></g><path transform="translate(9.83 -35.69) scale(.90566)" d="M291.688-437.594a3.313 3.313 0 1 1-6.625 0 3.313 3.313 0 1 1 6.625 0z" fill="url(#co)"/><path d="M292.956-437.334c0 2.685-3.27 3.714-3.27 3.714s2.35-1.626 2.338-3.705l.932-.01z" fill="#888a85" fill-rule="evenodd"/><g transform="matrix(1.14286 0 0 1.14286 -28.57 67)"><path d="M277-437.5a3.5 3.5 0 1 1-7 0 3.5 3.5 0 1 1 7 0z" fill="#c4c5c2"/><path d="M291.688-437.594a3.313 3.313 0 1 1-6.625 0 3.313 3.313 0 1 1 6.625 0z" transform="matrix(1.0566 0 0 1.0566 -31.198 24.863)" fill="url(#cp)"/></g></g><g opacity=".7" stroke-linecap="square"><path d="M24 2.5l-2.375 6.688C22.4 9.063 23.19 9 24 9c.81 0 1.6.064 2.375.188L24 2.5zM8.812 8.78l3.032 6.44c.935-1.29 2.085-2.44 3.375-3.376L8.81 8.78zm30.407 0l-6.44 3.064c1.29.935 2.44 2.085 3.376 3.375l3.063-6.44zM9.187 21.595L2.5 23.97l6.688 2.374C9.068 25.58 9 24.798 9 24c0-.82.06-1.622.188-2.406zm29.624.03C38.937 22.4 39 23.192 39 24c0 .81-.064 1.6-.188 2.375L45.5 24l-6.688-2.375zM11.845 32.782l-3.03 6.407 6.405-3.03c-1.29-.936-2.44-2.086-3.376-3.376zm24.312 0c-.926 1.28-2.068 2.415-3.343 3.345l6.406 3.063-3.064-6.407zm-14.53 6.032L24 45.5l2.375-6.688C25.6 38.937 24.81 39 24 39c-.81 0-1.6-.064-2.375-.188z" fill="#fce94f" stroke="#fcaf3e" stroke-width=".737"/><path d="M24 5.25l-1.344 3.813C23.1 9.023 23.546 9 24 9c.453 0 .9.023 1.344.063L24 5.25zm-13.22 5.5l1.72 3.625c.572-.68 1.224-1.336 1.906-1.906l-3.625-1.72zm26.47 0l-3.625 1.72c.68.568 1.337 1.225 1.906 1.905l1.72-3.625zM9.062 22.625l-3.78 1.344 3.78 1.343C9.025 24.88 9 24.442 9 24c0-.464.02-.922.063-1.375zm29.876.03c.04.444.062.892.062 1.345 0 .453-.023.9-.063 1.344L42.72 24l-3.782-1.344zm-3.407 10.94c-.572.685-1.22 1.362-1.905 1.936l3.625 1.72-1.72-3.656zm-23.03.03l-1.72 3.594 3.595-1.72c-.672-.564-1.31-1.203-1.875-1.875zm10.156 5.313L24 42.718l1.344-3.78c-.443.04-.89.062-1.344.062-.453 0-.9-.023-1.344-.063z" fill="none" stroke="url(#cq)" stroke-width=".846"/></g><path transform="matrix(.77806 -1.0613 1.0613 .77806 67.48 3.64)" d="M-22.5-17.5a9.5 9.5 0 1 1-19 0 9.5 9.5 0 1 1 19 0z" fill="#ffee54" stroke="#fcaf3e" stroke-width=".76" stroke-linecap="square"/><path transform="matrix(1.24426 -.1677 .21664 1.25184 67.616 40.527)" d="M-22.5-17.5a9.5 9.5 0 1 1-19 0 9.5 9.5 0 1 1 19 0z" fill="url(#cr)"/><path transform="matrix(.7158 -.97635 .97635 .7158 64 5.27)" d="M-22.5-17.5a9.5 9.5 0 1 1-19 0 9.5 9.5 0 1 1 19 0z" fill="none" stroke="url(#cs)" stroke-width=".826" stroke-linecap="square"/><g transform="translate(-248.99 467.986)"><path d="M280.5-445.5c-2.27 0-4.11 1.55-4.72 3.625-.692-.364-1.443-.625-2.28-.625-2.76 0-5 2.24-5 5 0 .58.163 1.108.344 1.625-1.374.77-2.344 2.19-2.344 3.875 0 2.484 2.016 4.5 4.5 4.5h19c2.484 0 4.5-2.016 4.5-4.5 0-1.686-.97-3.104-2.344-3.875.18-.517.344-1.046.344-1.625 0-2.76-2.24-5-5-5-.837 0-1.588.26-2.28.625-.61-2.075-2.45-3.625-4.72-3.625z" fill="#c4c5c2" stroke="#888a85" stroke-miterlimit="2"/><path d="M280.5-445c-2.19 0-3.724 1.336-4.396 3.844-.668-.344-1.547-.834-2.354-.834-2.717 0-4.755 1.94-4.755 4.546 0 .546.267 1.333.442 1.822-1.325.728-2.437 1.89-2.437 3.372 0 2.346 1.546 4.25 4.34 4.25h18.32c2.772 0 4.34-1.904 4.34-4.25 0-1.592-1.112-2.666-2.437-3.394.175-.49.464-1.254.464-1.8 0-2.607-2.116-4.568-4.777-4.568-.807 0-1.642.49-2.31.833-.65-2.42-2.25-3.82-4.44-3.82z" fill="url(#ct)"/><path d="M284-440.5a3.5 3.5 0 1 1-7 0 3.5 3.5 0 1 1 7 0z" fill="#c4c5c2"/><path d="M291.688-437.594a3.313 3.313 0 1 1-6.625 0 3.313 3.313 0 1 1 6.625 0z" transform="matrix(1.0566 0 0 1.0566 -24.198 21.863)" fill="url(#cu)"/><path fill="#c4c5c2" d="M271-438h20v9h-20z"/><path d="M274-432a3 3 0 1 1-6 0 3 3 0 1 1 6 0zM291-437.5a3.5 3.5 0 1 1-7 0 3.5 3.5 0 1 1 7 0z" fill="#c4c5c2"/><path d="M291.688-437.594a3.313 3.313 0 1 1-6.625 0 3.313 3.313 0 1 1 6.625 0z" transform="matrix(1.0566 0 0 1.0566 -17.198 24.863)" fill="url(#cv)"/><path d="M277-437.5a3.5 3.5 0 1 1-7 0 3.5 3.5 0 1 1 7 0z" fill="#c4c5c2"/><path d="M291.688-437.594a3.313 3.313 0 1 1-6.625 0 3.313 3.313 0 1 1 6.625 0z" transform="matrix(1.0566 0 0 1.0566 -31.198 24.863)" fill="url(#cw)"/><g transform="translate(-1)"><path d="M280.47-440.97c-3.58 0-6.47 2.922-6.47 6.5 0 2.372 1.35 4.34 3.25 5.47h6.47c1.9-1.13 3.25-3.13 3.25-5.5 0-3.58-2.922-6.47-6.5-6.47z" fill="#c4c5c2"/><path d="M280.5-441c-3.588 0-6.5 2.912-6.5 6.5 0 2.376 1.345 4.366 3.25 5.5h6.5c1.905-1.134 3.25-3.124 3.25-5.5 0-3.588-2.912-6.5-6.5-6.5z" fill="url(#cx)"/></g><path transform="translate(9.83 -35.69) scale(.90566)" d="M291.688-437.594a3.313 3.313 0 1 1-6.625 0 3.313 3.313 0 1 1 6.625 0z" fill="url(#cy)"/><path d="M292.956-437.334c0 2.685-3.27 3.714-3.27 3.714s2.35-1.626 2.338-3.705l.932-.01z" fill="#888a85" fill-rule="evenodd"/><g transform="matrix(1.14286 0 0 1.14286 -28.57 67)"><path d="M277-437.5a3.5 3.5 0 1 1-7 0 3.5 3.5 0 1 1 7 0z" fill="#c4c5c2"/><path d="M291.688-437.594a3.313 3.313 0 1 1-6.625 0 3.313 3.313 0 1 1 6.625 0z" transform="matrix(1.0566 0 0 1.0566 -31.198 24.863)" fill="url(#cz)"/></g></g></svg>