<?xml version="1.0" encoding="UTF-8" standalone="no"?><svg xmlns="http://www.w3.org/2000/svg" xmlns:xlink="http://www.w3.org/1999/xlink" width="48" height="48" viewBox="0 0 48 48"><defs><linearGradient id="ak"><stop offset="0" stop-color="#fff" stop-opacity="0"/><stop offset=".75" stop-color="#fff" stop-opacity="0"/><stop offset="1" stop-color="#fff"/></linearGradient><linearGradient id="aj"><stop offset="0" stop-color="#fff7c2" stop-opacity=".638"/><stop offset=".594" stop-color="#fcaf3e" stop-opacity=".183"/><stop offset=".839" stop-color="#fcaf3e" stop-opacity=".505"/><stop offset="1" stop-color="#fcaf3e"/></linearGradient><linearGradient id="ai"><stop offset="0" stop-color="#fff9c6"/><stop offset=".542" stop-color="#fff28c"/><stop offset="1" stop-color="#ffea85"/></linearGradient><linearGradient id="ah"><stop offset="0"/><stop offset="1" stop-opacity="0"/></linearGradient><linearGradient id="ac"><stop offset="0" stop-color="#fff"/><stop offset="1" stop-color="#fff" stop-opacity="0"/></linearGradient><linearGradient id="aa"><stop offset="0" stop-color="#fff"/><stop offset="1" stop-color="#fff" stop-opacity="0"/></linearGradient><linearGradient id="ag"><stop offset="0" stop-color="#edd400"/><stop offset="1" stop-color="#edd400" stop-opacity="0"/></linearGradient><linearGradient id="ab"><stop offset="0" stop-color="#fcaf3e" stop-opacity="0"/><stop offset=".666" stop-color="#fcaf3e" stop-opacity=".174"/><stop offset=".865" stop-color="#fcaf3e" stop-opacity=".56"/><stop offset="1" stop-color="#fcaf3e"/></linearGradient><linearGradient id="af"><stop offset="0" stop-color="#fce94f"/><stop offset="1" stop-color="#fce94f" stop-opacity="0"/></linearGradient><linearGradient id="ae"><stop offset="0" stop-color="#eeeeec"/><stop offset="1" stop-color="#eeeeec" stop-opacity="0"/></linearGradient><linearGradient id="ad"><stop offset="0" stop-color="#fff"/><stop offset="1" stop-color="#fff" stop-opacity="0"/></linearGradient><linearGradient xlink:href="#ai" id="an" gradientUnits="userSpaceOnUse" x1="-28.969" y1="-25.327" x2="-37.197" y2="-9.559"/><radialGradient xlink:href="#aj" id="am" cx="-33.519" cy="-22.113" fx="-33.519" fy="-22.113" r="9.5" gradientUnits="userSpaceOnUse" gradientTransform="matrix(.48774 1.2924 -1.10267 .49724 -41.774 32.415)"/><radialGradient xlink:href="#ak" id="al" cx="24" cy="23.382" fx="24" fy="23.382" r="19.142" gradientTransform="matrix(1.0067 0 0 1.00752 -.16 .427)" gradientUnits="userSpaceOnUse"/></defs><g opacity=".7" stroke-linecap="square"><path d="M24 2.5l-2.375 6.688C22.4 9.063 23.19 9 24 9c.81 0 1.6.064 2.375.188L24 2.5zM8.812 8.78l3.032 6.44c.935-1.29 2.085-2.44 3.375-3.376L8.81 8.78zm30.407 0l-6.44 3.064c1.29.935 2.44 2.085 3.376 3.375l3.063-6.44zM9.187 21.595L2.5 23.97l6.688 2.374C9.068 25.58 9 24.798 9 24c0-.82.06-1.622.188-2.406zm29.624.03C38.937 22.4 39 23.192 39 24c0 .81-.064 1.6-.188 2.375L45.5 24l-6.688-2.375zM11.845 32.782l-3.03 6.407 6.405-3.03c-1.29-.936-2.44-2.086-3.376-3.376zm24.312 0c-.926 1.28-2.068 2.415-3.343 3.345l6.406 3.063-3.064-6.407zm-14.53 6.032L24 45.5l2.375-6.688C25.6 38.937 24.81 39 24 39c-.81 0-1.6-.064-2.375-.188z" fill="#fce94f" stroke="#fcaf3e" stroke-width=".737"/><path d="M24 5.25l-1.344 3.813C23.1 9.023 23.546 9 24 9c.453 0 .9.023 1.344.063L24 5.25zm-13.22 5.5l1.72 3.625c.572-.68 1.224-1.336 1.906-1.906l-3.625-1.72zm26.47 0l-3.625 1.72c.68.568 1.337 1.225 1.906 1.905l1.72-3.625zM9.062 22.625l-3.78 1.344 3.78 1.343C9.025 24.88 9 24.442 9 24c0-.464.02-.922.063-1.375zm29.876.03c.04.444.062.892.062 1.345 0 .453-.023.9-.063 1.344L42.72 24l-3.782-1.344zm-3.407 10.94c-.572.685-1.22 1.362-1.905 1.936l3.625 1.72-1.72-3.656zm-23.03.03l-1.72 3.594 3.595-1.72c-.672-.564-1.31-1.203-1.875-1.875zm10.156 5.313L24 42.718l1.344-3.78c-.443.04-.89.062-1.344.062-.453 0-.9-.023-1.344-.063z" fill="none" stroke="url(#al)" stroke-width=".846"/></g><path transform="matrix(.77806 -1.0613 1.0613 .77806 67.48 3.64)" d="M-22.5-17.5a9.5 9.5 0 1 1-19 0 9.5 9.5 0 1 1 19 0z" fill="#ffee54" stroke="#fcaf3e" stroke-width=".76" stroke-linecap="square"/><path transform="matrix(1.24426 -.1677 .21664 1.25184 67.616 40.527)" d="M-22.5-17.5a9.5 9.5 0 1 1-19 0 9.5 9.5 0 1 1 19 0z" fill="url(#am)"/><path transform="matrix(.7158 -.97635 .97635 .7158 64 5.27)" d="M-22.5-17.5a9.5 9.5 0 1 1-19 0 9.5 9.5 0 1 1 19 0z" fill="none" stroke="url(#an)" stroke-width=".826" stroke-linecap="square"/></svg>