<?xml version="1.0" encoding="UTF-8" standalone="no"?><svg xmlns="http://www.w3.org/2000/svg" xmlns:xlink="http://www.w3.org/1999/xlink" width="48" height="48" viewBox="0 0 48 48"><defs><linearGradient xlink:href="#ha" id="hz" gradientUnits="userSpaceOnUse" gradientTransform="matrix(-.0536 .10285 -.0928 -.05938 198.905 -255.69)" x1="6.894" y1="-359.824" x2="27.4" y2="-381.302"/><radialGradient xlink:href="#hb" id="hy" gradientUnits="userSpaceOnUse" gradientTransform="matrix(.07065 .04155 -.062 .1094 207.476 -189.818)" cx="21.92" cy="-382.965" fx="21.92" fy="-382.965" r="21.744"/><linearGradient xlink:href="#hc" id="hS" gradientUnits="userSpaceOnUse" x1="284.802" y1="-441.233" x2="288.9" y2="-436.831"/><linearGradient xlink:href="#hd" id="hR" gradientUnits="userSpaceOnUse" x1="286.666" y1="-439.484" x2="289.766" y2="-436.707"/><linearGradient xlink:href="#he" id="hQ" gradientUnits="userSpaceOnUse" gradientTransform="translate(-35 207)" x1="275.942" y1="-437.105" x2="279.975" y2="-431.918"/><linearGradient xlink:href="#hc" id="hP" gradientUnits="userSpaceOnUse" x1="285.941" y1="-439.939" x2="289.391" y2="-436.443"/><linearGradient xlink:href="#hf" id="hO" gradientUnits="userSpaceOnUse" x1="286.512" y1="-441.291" x2="289.854" y2="-436.145"/><linearGradient xlink:href="#hg" id="hN" gradientUnits="userSpaceOnUse" x1="287.517" y1="-439.753" x2="289.676" y2="-436.322"/><linearGradient xlink:href="#hh" id="hM" gradientUnits="userSpaceOnUse" gradientTransform="translate(-34 207)" x1="271.022" y1="-441.052" x2="285.029" y2="-431.97"/><linearGradient xlink:href="#hc" id="hL" gradientUnits="userSpaceOnUse" x1="284.802" y1="-441.233" x2="288.9" y2="-436.831"/><linearGradient xlink:href="#hd" id="hK" gradientUnits="userSpaceOnUse" x1="286.666" y1="-439.484" x2="289.766" y2="-436.707"/><linearGradient xlink:href="#he" id="hJ" gradientUnits="userSpaceOnUse" gradientTransform="translate(-35 207)" x1="275.942" y1="-437.105" x2="279.975" y2="-431.918"/><linearGradient xlink:href="#hc" id="hI" gradientUnits="userSpaceOnUse" x1="285.941" y1="-439.939" x2="289.391" y2="-436.443"/><linearGradient xlink:href="#hf" id="hH" gradientUnits="userSpaceOnUse" x1="286.512" y1="-441.291" x2="289.854" y2="-436.145"/><linearGradient xlink:href="#hg" id="hG" gradientUnits="userSpaceOnUse" x1="287.517" y1="-439.753" x2="289.676" y2="-436.322"/><linearGradient xlink:href="#hh" id="hF" gradientUnits="userSpaceOnUse" gradientTransform="translate(-34 207)" x1="271.022" y1="-441.052" x2="285.029" y2="-431.97"/><linearGradient xlink:href="#hi" id="hE" gradientUnits="userSpaceOnUse" x1="238.005" y1="-388.475" x2="245.655" y2="-382.645"/><linearGradient xlink:href="#hj" id="hD" gradientUnits="userSpaceOnUse" x1="230.876" y1="-390.44" x2="235.257" y2="-386.959"/><linearGradient xlink:href="#hk" id="hC" gradientUnits="userSpaceOnUse" x1="246.74" y1="-391.314" x2="252.698" y2="-385.352"/><linearGradient xlink:href="#hl" id="hB" gradientUnits="userSpaceOnUse" x1="240.074" y1="-393.407" x2="245.827" y2="-388.55"/><linearGradient xlink:href="#hm" id="hA" gradientUnits="userSpaceOnUse" gradientTransform="translate(69 155)" x1="228.503" y1="-392.306" x2="266.364" y2="-379.269"/><linearGradient xlink:href="#ha" id="hU" gradientUnits="userSpaceOnUse" gradientTransform="matrix(-.0536 .10285 -.0928 -.05938 198.905 -255.69)" x1="6.894" y1="-359.824" x2="27.4" y2="-381.302"/><radialGradient xlink:href="#hb" id="hT" gradientUnits="userSpaceOnUse" gradientTransform="matrix(.07065 .04155 -.062 .1094 207.476 -189.818)" cx="21.92" cy="-382.965" fx="21.92" fy="-382.965" r="21.744"/><linearGradient xlink:href="#ha" id="hW" gradientUnits="userSpaceOnUse" gradientTransform="matrix(-.0536 .10285 -.0928 -.05938 198.905 -255.69)" x1="6.894" y1="-359.824" x2="27.4" y2="-381.302"/><radialGradient xlink:href="#hb" id="hV" gradientUnits="userSpaceOnUse" gradientTransform="matrix(.07065 .04155 -.062 .1094 207.476 -189.818)" cx="21.92" cy="-382.965" fx="21.92" fy="-382.965" r="21.744"/><linearGradient xlink:href="#ha" id="hY" gradientUnits="userSpaceOnUse" gradientTransform="matrix(-.0536 .10285 -.0928 -.05938 198.905 -255.69)" x1="6.894" y1="-359.824" x2="27.4" y2="-381.302"/><radialGradient xlink:href="#hb" id="hX" gradientUnits="userSpaceOnUse" gradientTransform="matrix(.07065 .04155 -.062 .1094 207.476 -189.818)" cx="21.92" cy="-382.965" fx="21.92" fy="-382.965" r="21.744"/><linearGradient xlink:href="#ha" id="haa" gradientUnits="userSpaceOnUse" gradientTransform="matrix(-.0536 .10285 -.0928 -.05938 198.905 -255.69)" x1="6.894" y1="-359.824" x2="27.4" y2="-381.302"/><radialGradient xlink:href="#hb" id="hZ" gradientUnits="userSpaceOnUse" gradientTransform="matrix(.07065 .04155 -.062 .1094 207.476 -189.818)" cx="21.92" cy="-382.965" fx="21.92" fy="-382.965" r="21.744"/><linearGradient id="ha"><stop offset="0" stop-color="#fff"/><stop offset="1" stop-color="#fff" stop-opacity="0"/></linearGradient><linearGradient xlink:href="#ha" id="hac" gradientUnits="userSpaceOnUse" gradientTransform="matrix(-.0536 .10285 -.0928 -.05938 198.905 -255.69)" x1="6.894" y1="-359.824" x2="27.4" y2="-381.302"/><linearGradient id="hb"><stop offset="0" stop-color="#fff"/><stop offset="1" stop-color="#fff" stop-opacity="0"/></linearGradient><radialGradient xlink:href="#hb" id="hab" gradientUnits="userSpaceOnUse" gradientTransform="matrix(.07065 .04155 -.062 .1094 207.476 -189.818)" cx="21.92" cy="-382.965" fx="21.92" fy="-382.965" r="21.744"/><linearGradient id="hd"><stop offset="0" stop-color="#fff"/><stop offset="1" stop-color="#fff" stop-opacity="0"/></linearGradient><linearGradient id="he"><stop offset="0" stop-color="#fff"/><stop offset="1" stop-color="#fff" stop-opacity="0"/></linearGradient><linearGradient id="hc"><stop offset="0" stop-color="#fff"/><stop offset="1" stop-color="#fff" stop-opacity="0"/></linearGradient><linearGradient id="hf"><stop offset="0" stop-color="#fff"/><stop offset="1" stop-color="#fff" stop-opacity="0"/></linearGradient><linearGradient id="hg"><stop offset="0" stop-color="#fff"/><stop offset="1" stop-color="#fff" stop-opacity="0"/></linearGradient><linearGradient id="hh"><stop offset="0" stop-color="#fff"/><stop offset="1" stop-color="#fff" stop-opacity="0"/></linearGradient><linearGradient id="hi"><stop offset="0" stop-color="#fff"/><stop offset="1" stop-color="#fff" stop-opacity="0"/></linearGradient><linearGradient id="hj"><stop offset="0" stop-color="#fff"/><stop offset="1" stop-color="#fff" stop-opacity="0"/></linearGradient><linearGradient id="hk"><stop offset="0" stop-color="#fff"/><stop offset="1" stop-color="#fff" stop-opacity="0"/></linearGradient><linearGradient id="hl"><stop offset="0" stop-color="#fff"/><stop offset="1" stop-color="#fff" stop-opacity="0"/></linearGradient><linearGradient id="hm"><stop offset="0" stop-color="#fff"/><stop offset="1" stop-color="#fff" stop-opacity="0"/></linearGradient><linearGradient id="ho"><stop offset="0" stop-color="#fff"/><stop offset="1" stop-color="#fff" stop-opacity="0"/></linearGradient><linearGradient id="hq"><stop offset="0" stop-color="#fff"/><stop offset="1" stop-color="#fff" stop-opacity="0"/></linearGradient><linearGradient id="hp"><stop offset="0" stop-color="#fff"/><stop offset="1" stop-color="#fff" stop-opacity="0"/></linearGradient><linearGradient id="hr" gradientUnits="userSpaceOnUse" x1="4.191" y1="11.113" x2="47.32" y2="56.052"><stop offset="0" stop-color="#fff"/><stop offset="1" stop-color="#fff" stop-opacity=".34"/></linearGradient><linearGradient id="hx"><stop offset="0" stop-color="#fff"/><stop offset="1" stop-color="#fff" stop-opacity="0"/></linearGradient><linearGradient id="hw"><stop offset="0" stop-color="#fff"/><stop offset="1" stop-color="#fff" stop-opacity="0"/></linearGradient><linearGradient id="hv"><stop offset="0" stop-color="#edd400"/><stop offset="1" stop-color="#edd400" stop-opacity="0"/></linearGradient><linearGradient id="hu"><stop offset="0" stop-color="#fcaf3e"/><stop offset="1" stop-color="#fcaf3e" stop-opacity="0"/></linearGradient><linearGradient id="ht"><stop offset="0" stop-color="#fce94f"/><stop offset="1" stop-color="#fce94f" stop-opacity="0"/></linearGradient><linearGradient id="hs"><stop offset="0" stop-color="#eeeeec"/><stop offset="1" stop-color="#eeeeec" stop-opacity="0"/></linearGradient><linearGradient id="hn"><stop offset="0" stop-color="#fff"/><stop offset="1" stop-color="#fff" stop-opacity="0"/></linearGradient></defs><g transform="translate(-202.955 271.007)"><path d="M231.626-228.77c-1.04-.597-1.396-1.918-.796-2.95 1.332-2.082 3.105-1.546 4.012-3.74 1.26 1.332.793 8.246-3.216 6.69z" fill="#729fcf" stroke="#204a87" stroke-width="1.075" stroke-miterlimit="2"/><path d="M234.31-229.904c-.49.864-1.575 1.16-2.423.662-.848-.5-1.14-1.605-.65-2.468.49-.864 2.607-.452 3.347-2.29.848.5.216 3.233-.274 4.096z" opacity=".461" fill="url(#hy)"/><path d="M233.022-229c-4.614-1.074.238-4.72.978-3.922-3.582 1.37-.978 3.922-.978 3.922z" fill="url(#hz)"/></g><g transform="matrix(.99967 0 0 1 -286.848 245)"><path d="M311.5-243c-2.772 0-5.108 1.574-6.406 3.813-.945-.476-1.965-.813-3.094-.813-3.864 0-7 3.136-7 7s3.136 7 7 7c2.42 0 4.43-1.32 5.688-3.187 1.134.69 2.388 1.187 3.812 1.187.913 0 1.753-.232 2.563-.53.51.867 1.18 1.578 2 2.155-.008.13-.063.243-.063.375 0 3.864 3.136 7 7 7s7-3.136 7-7c0-2.37-1.26-4.358-3.063-5.625.008-.13.063-.243.063-.375 0-3.864-3.136-7-7-7-.623 0-1.175.222-1.75.375-1.195-2.56-3.74-4.375-6.75-4.375z" fill="#555753"/><path d="M311.5-242c-2.78 0-5.135 1.762-6.063 4.22-.985-.71-2.13-1.22-3.437-1.22-3.312 0-6 2.688-6 6s2.688 6 6 6c2.428 0 4.493-1.456 5.438-3.53 1.12.916 2.502 1.53 4.062 1.53 1.075 0 2.044-.32 2.938-.78.398 1 1.1 1.785 1.937 2.436-.18.596-.375 1.19-.375 1.844 0 3.588 2.912 6.5 6.5 6.5s6.5-2.912 6.5-6.5c0-2.36-1.334-4.33-3.22-5.47.064-.346.22-.665.22-1.03 0-3.312-2.688-6-6-6-.853 0-1.67.18-2.406.5-.854-2.594-3.215-4.5-6.094-4.5z" fill="url(#hA)"/><path d="M329-225.5a6.5 6.5 0 1 1-13 0 6.5 6.5 0 1 1 13 0zM317-235.5a5.5 5.5 0 1 1-11 0 5.5 5.5 0 1 1 11 0z" fill="#888a85"/><path transform="translate(96.18 108.11) scale(.88263)" d="M250.183-389.3a6.23 6.23 0 1 1-12.463 0 6.23 6.23 0 1 1 12.463 0z" opacity=".494" fill="url(#hB)"/><path d="M325-231.5a5.5 5.5 0 1 1-11 0 5.5 5.5 0 1 1 11 0z" fill="#888a85"/><path transform="matrix(.91173 0 0 .91173 90.454 120.234)" d="M257.254-385.788a6.033 6.033 0 1 1-12.065 0 6.033 6.033 0 1 1 12.064 0z" opacity=".494" fill="url(#hC)"/><g><path d="M307-233a5 5 0 1 1-10 0 5 5 0 1 1 10 0z" fill="#888a85"/><path transform="matrix(1.1428 0 0 1.1428 35.232 210.277)" d="M237.81-387.887a4.375 4.375 0 1 1-8.752 0 4.375 4.375 0 1 1 8.75 0z" opacity=".494" fill="url(#hD)"/></g><g><path d="M318-229a7 7 0 1 1-14 0 7 7 0 1 1 14 0z" fill="#888a85"/><path transform="matrix(1.03864 0 0 1.03864 59.85 169.49)" d="M248.548-383.667a6.74 6.74 0 1 1-13.48 0 6.74 6.74 0 1 1 13.48 0z" opacity=".494" fill="url(#hE)"/></g><g transform="translate(72 8)"><path d="M246.5-238.5c-2.27 0-4.11 1.55-4.72 3.625-.692-.364-1.443-.625-2.28-.625-2.76 0-5 2.24-5 5 0 .58.162 1.108.344 1.625-1.374.77-2.344 2.19-2.344 3.875 0 2.484 2.016 4.5 4.5 4.5h19c2.484 0 4.5-2.016 4.5-4.5 0-1.686-.97-3.104-2.344-3.875.18-.517.344-1.046.344-1.625 0-2.76-2.24-5-5-5-.837 0-1.588.26-2.28.625-.61-2.075-2.45-3.625-4.72-3.625z" fill="#888a85" stroke="#555753" stroke-miterlimit="2"/><path d="M246.5-238c-2.19 0-3.724 1.336-4.396 3.844-.668-.344-1.547-.834-2.354-.834-2.717 0-4.755 1.94-4.755 4.546 0 .547.267 1.333.442 1.822-1.325.728-2.437 1.89-2.437 3.372 0 2.346 1.546 4.25 4.34 4.25h18.32c2.772 0 4.34-1.904 4.34-4.25 0-1.592-1.112-2.666-2.437-3.394.175-.49.464-1.253.464-1.8 0-2.607-2.116-4.568-4.777-4.568-.807 0-1.642.49-2.31.833-.65-2.42-2.25-3.82-4.44-3.82z" fill="url(#hF)"/><path d="M250-233.5a3.5 3.5 0 1 1-7 0 3.5 3.5 0 1 1 7 0z" fill="#888a85"/><path d="M291.688-437.594a3.313 3.313 0 1 1-6.625 0 3.313 3.313 0 1 1 6.625 0z" transform="matrix(1.0566 0 0 1.0566 -58.198 228.863)" opacity=".478" fill="url(#hG)"/><path fill="#888a85" d="M237-231h20v9h-20z"/><path d="M240-225a3 3 0 1 1-6 0 3 3 0 1 1 6 0zM257-230.5a3.5 3.5 0 1 1-7 0 3.5 3.5 0 1 1 7 0z" fill="#888a85"/><path d="M291.688-437.594a3.313 3.313 0 1 1-6.625 0 3.313 3.313 0 1 1 6.625 0z" transform="matrix(1.0566 0 0 1.0566 -51.198 231.863)" opacity=".478" fill="url(#hH)"/><path d="M243-230.5a3.5 3.5 0 1 1-7 0 3.5 3.5 0 1 1 7 0z" fill="#888a85"/><path d="M291.688-437.594a3.313 3.313 0 1 1-6.625 0 3.313 3.313 0 1 1 6.625 0z" transform="matrix(1.0566 0 0 1.0566 -65.198 231.863)" opacity=".478" fill="url(#hI)"/><path d="M245.47-233.97c-3.58 0-6.47 2.922-6.47 6.5 0 2.372 1.35 4.34 3.25 5.47h6.47c1.9-1.13 3.25-3.13 3.25-5.5 0-3.58-2.922-6.47-6.5-6.47z" fill="#888a85"/><path d="M245.5-234c-3.588 0-6.5 2.912-6.5 6.5 0 2.376 1.345 4.366 3.25 5.5h6.5c1.905-1.134 3.25-3.124 3.25-5.5 0-3.588-2.912-6.5-6.5-6.5z" opacity=".478" fill="url(#hJ)"/><path d="M291.688-437.594a3.313 3.313 0 1 1-6.625 0 3.313 3.313 0 1 1 6.625 0z" transform="translate(-24.17 171.31) scale(.90566)" opacity=".478" fill="url(#hK)"/><path d="M258.956-230.334c0 2.685-3.27 3.714-3.27 3.714s2.35-1.626 2.338-3.705l.932-.01z" fill="#555753" fill-rule="evenodd"/><path d="M254-226a4 4 0 1 1-8 0 4 4 0 1 1 8 0z" fill="#888a85"/><path d="M291.688-437.594a3.313 3.313 0 1 1-6.625 0 3.313 3.313 0 1 1 6.625 0z" transform="matrix(1.20755 0 0 1.20755 -98.227 302.415)" opacity=".478" fill="url(#hL)"/></g><g transform="translate(56.986 3.984)"><path d="M246.5-238.5c-2.27 0-4.11 1.55-4.72 3.625-.692-.364-1.443-.625-2.28-.625-2.76 0-5 2.24-5 5 0 .58.162 1.108.344 1.625-1.374.77-2.344 2.19-2.344 3.875 0 2.484 2.016 4.5 4.5 4.5h19c2.484 0 4.5-2.016 4.5-4.5 0-1.686-.97-3.104-2.344-3.875.18-.517.344-1.046.344-1.625 0-2.76-2.24-5-5-5-.837 0-1.588.26-2.28.625-.61-2.075-2.45-3.625-4.72-3.625z" fill="#888a85" stroke="#555753" stroke-miterlimit="2"/><path d="M246.5-238c-2.19 0-3.724 1.336-4.396 3.844-.668-.344-1.547-.834-2.354-.834-2.717 0-4.755 1.94-4.755 4.546 0 .547.267 1.333.442 1.822-1.325.728-2.437 1.89-2.437 3.372 0 2.346 1.546 4.25 4.34 4.25h18.32c2.772 0 4.34-1.904 4.34-4.25 0-1.592-1.112-2.666-2.437-3.394.175-.49.464-1.253.464-1.8 0-2.607-2.116-4.568-4.777-4.568-.807 0-1.642.49-2.31.833-.65-2.42-2.25-3.82-4.44-3.82z" fill="url(#hM)"/><path d="M250-233.5a3.5 3.5 0 1 1-7 0 3.5 3.5 0 1 1 7 0z" fill="#888a85"/><path d="M291.688-437.594a3.313 3.313 0 1 1-6.625 0 3.313 3.313 0 1 1 6.625 0z" transform="matrix(1.0566 0 0 1.0566 -58.198 228.863)" opacity=".478" fill="url(#hN)"/><path fill="#888a85" d="M237-231h20v9h-20z"/><path d="M240-225a3 3 0 1 1-6 0 3 3 0 1 1 6 0zM257-230.5a3.5 3.5 0 1 1-7 0 3.5 3.5 0 1 1 7 0z" fill="#888a85"/><path d="M291.688-437.594a3.313 3.313 0 1 1-6.625 0 3.313 3.313 0 1 1 6.625 0z" transform="matrix(1.0566 0 0 1.0566 -51.198 231.863)" opacity=".478" fill="url(#hO)"/><path d="M243-230.5a3.5 3.5 0 1 1-7 0 3.5 3.5 0 1 1 7 0z" fill="#888a85"/><path d="M291.688-437.594a3.313 3.313 0 1 1-6.625 0 3.313 3.313 0 1 1 6.625 0z" transform="matrix(1.0566 0 0 1.0566 -65.198 231.863)" opacity=".478" fill="url(#hP)"/><path d="M245.47-233.97c-3.58 0-6.47 2.922-6.47 6.5 0 2.372 1.35 4.34 3.25 5.47h6.47c1.9-1.13 3.25-3.13 3.25-5.5 0-3.58-2.922-6.47-6.5-6.47z" fill="#888a85"/><path d="M245.5-234c-3.588 0-6.5 2.912-6.5 6.5 0 2.376 1.345 4.366 3.25 5.5h6.5c1.905-1.134 3.25-3.124 3.25-5.5 0-3.588-2.912-6.5-6.5-6.5z" opacity=".478" fill="url(#hQ)"/><path d="M291.688-437.594a3.313 3.313 0 1 1-6.625 0 3.313 3.313 0 1 1 6.625 0z" transform="translate(-24.17 171.31) scale(.90566)" opacity=".478" fill="url(#hR)"/><path d="M258.956-230.334c0 2.685-3.27 3.714-3.27 3.714s2.35-1.626 2.338-3.705l.932-.01z" fill="#555753" fill-rule="evenodd"/><path d="M254-226a4 4 0 1 1-8 0 4 4 0 1 1 8 0z" fill="#888a85"/><path d="M291.688-437.594a3.313 3.313 0 1 1-6.625 0 3.313 3.313 0 1 1 6.625 0z" transform="matrix(1.20755 0 0 1.20755 -98.227 302.415)" opacity=".478" fill="url(#hS)"/></g></g><g transform="translate(-222.955 261.014)"><path d="M231.626-228.77c-1.04-.597-1.396-1.918-.796-2.95 1.332-2.082 3.105-1.546 4.012-3.74 1.26 1.332.793 8.246-3.216 6.69z" fill="#729fcf" stroke="#204a87" stroke-width="1.075" stroke-miterlimit="2"/><path d="M234.31-229.904c-.49.864-1.575 1.16-2.423.662-.848-.5-1.14-1.605-.65-2.468.49-.864 2.607-.452 3.347-2.29.848.5.216 3.233-.274 4.096z" opacity=".461" fill="url(#hT)"/><path d="M233.022-229c-4.614-1.074.238-4.72.978-3.922-3.582 1.37-.978 3.922-.978 3.922z" fill="url(#hU)"/></g><g transform="translate(-193.957 268.007)"><path d="M231.626-228.77c-1.04-.597-1.396-1.918-.796-2.95 1.332-2.082 3.105-1.546 4.012-3.74 1.26 1.332.793 8.246-3.216 6.69z" fill="#729fcf" stroke="#204a87" stroke-width="1.075" stroke-miterlimit="2"/><path d="M234.31-229.904c-.49.864-1.575 1.16-2.423.662-.848-.5-1.14-1.605-.65-2.468.49-.864 2.607-.452 3.347-2.29.848.5.216 3.233-.274 4.096z" opacity=".461" fill="url(#hV)"/><path d="M233.022-229c-4.614-1.074.238-4.72.978-3.922-3.582 1.37-.978 3.922-.978 3.922z" fill="url(#hW)"/></g><g transform="translate(-224.955 271.008)"><path d="M231.626-228.77c-1.04-.597-1.396-1.918-.796-2.95 1.332-2.082 3.105-1.546 4.012-3.74 1.26 1.332.793 8.246-3.216 6.69z" fill="#729fcf" stroke="#204a87" stroke-width="1.075" stroke-miterlimit="2"/><path d="M234.31-229.904c-.49.864-1.575 1.16-2.423.662-.848-.5-1.14-1.605-.65-2.468.49-.864 2.607-.452 3.347-2.29.848.5.216 3.233-.274 4.096z" opacity=".461" fill="url(#hX)"/><path d="M233.022-229c-4.614-1.074.238-4.72.978-3.922-3.582 1.37-.978 3.922-.978 3.922z" fill="url(#hY)"/></g><g transform="translate(-214.957 266.007)"><path d="M231.626-228.77c-1.04-.597-1.396-1.918-.796-2.95 1.332-2.082 3.105-1.546 4.012-3.74 1.26 1.332.793 8.246-3.216 6.69z" fill="#729fcf" stroke="#204a87" stroke-width="1.075" stroke-miterlimit="2"/><path d="M234.31-229.904c-.49.864-1.575 1.16-2.423.662-.848-.5-1.14-1.605-.65-2.468.49-.864 2.607-.452 3.347-2.29.848.5.216 3.233-.274 4.096z" opacity=".461" fill="url(#hZ)"/><path d="M233.022-229c-4.614-1.074.238-4.72.978-3.922-3.582 1.37-.978 3.922-.978 3.922z" fill="url(#haa)"/></g><g transform="translate(-200.957 261.014)"><path d="M231.626-228.77c-1.04-.597-1.396-1.918-.796-2.95 1.332-2.082 3.105-1.546 4.012-3.74 1.26 1.332.793 8.246-3.216 6.69z" fill="#729fcf" stroke="#204a87" stroke-width="1.075" stroke-miterlimit="2"/><path d="M234.31-229.904c-.49.864-1.575 1.16-2.423.662-.848-.5-1.14-1.605-.65-2.468.49-.864 2.607-.452 3.347-2.29.848.5.216 3.233-.274 4.096z" opacity=".461" fill="url(#hab)"/><path d="M233.022-229c-4.614-1.074.238-4.72.978-3.922-3.582 1.37-.978 3.922-.978 3.922z" fill="url(#hac)"/></g></svg>