<?xml version="1.0" encoding="UTF-8" standalone="no"?><svg xmlns="http://www.w3.org/2000/svg" xmlns:xlink="http://www.w3.org/1999/xlink" width="48" height="48" viewBox="0 0 48 48"><defs><linearGradient xlink:href="#da" id="du" gradientUnits="userSpaceOnUse" x1="284.802" y1="-441.233" x2="288.9" y2="-436.831"/><linearGradient xlink:href="#db" id="dt" gradientUnits="userSpaceOnUse" x1="286.666" y1="-439.484" x2="289.766" y2="-436.707"/><linearGradient xlink:href="#dc" id="ds" gradientUnits="userSpaceOnUse" x1="275.942" y1="-437.105" x2="279.975" y2="-431.918"/><linearGradient xlink:href="#da" id="dr" gradientUnits="userSpaceOnUse" x1="285.941" y1="-439.939" x2="289.391" y2="-436.443"/><linearGradient xlink:href="#dd" id="dq" gradientUnits="userSpaceOnUse" x1="286.512" y1="-441.291" x2="289.854" y2="-436.145"/><linearGradient xlink:href="#de" id="dp" gradientUnits="userSpaceOnUse" x1="287.517" y1="-439.753" x2="289.676" y2="-436.322"/><linearGradient xlink:href="#df" id="do" gradientUnits="userSpaceOnUse" x1="271.022" y1="-441.052" x2="285.029" y2="-431.97"/><linearGradient id="dg"><stop offset="0" stop-color="#787974"/><stop offset="1" stop-color="#787974" stop-opacity="0"/></linearGradient><radialGradient xlink:href="#dg" id="dv" gradientUnits="userSpaceOnUse" gradientTransform="matrix(.0213 0 0 .0276 323.367 -435.104)" cx="97.468" cy="-405.912" fx="97.468" fy="-405.912" r="358.446"/><linearGradient xlink:href="#da" id="dC" gradientUnits="userSpaceOnUse" x1="284.802" y1="-441.233" x2="288.9" y2="-436.831"/><linearGradient xlink:href="#db" id="dB" gradientUnits="userSpaceOnUse" x1="286.666" y1="-439.484" x2="289.766" y2="-436.707"/><linearGradient xlink:href="#dc" id="dA" gradientUnits="userSpaceOnUse" x1="275.942" y1="-437.105" x2="279.975" y2="-431.918"/><linearGradient xlink:href="#da" id="dz" gradientUnits="userSpaceOnUse" x1="285.941" y1="-439.939" x2="289.391" y2="-436.443"/><linearGradient xlink:href="#dd" id="dy" gradientUnits="userSpaceOnUse" x1="286.512" y1="-441.291" x2="289.854" y2="-436.145"/><linearGradient xlink:href="#de" id="dx" gradientUnits="userSpaceOnUse" x1="287.517" y1="-439.753" x2="289.676" y2="-436.322"/><linearGradient xlink:href="#df" id="dw" gradientUnits="userSpaceOnUse" x1="271.022" y1="-441.052" x2="285.029" y2="-431.97"/><linearGradient id="db"><stop offset="0" stop-color="#fff"/><stop offset="1" stop-color="#fff" stop-opacity="0"/></linearGradient><linearGradient id="dc"><stop offset="0" stop-color="#fff"/><stop offset="1" stop-color="#fff" stop-opacity="0"/></linearGradient><linearGradient id="da"><stop offset="0" stop-color="#fff"/><stop offset="1" stop-color="#fff" stop-opacity="0"/></linearGradient><linearGradient id="dd"><stop offset="0" stop-color="#fff"/><stop offset="1" stop-color="#fff" stop-opacity="0"/></linearGradient><linearGradient id="de"><stop offset="0" stop-color="#fff"/><stop offset="1" stop-color="#fff" stop-opacity="0"/></linearGradient><linearGradient id="df"><stop offset="0" stop-color="#fff"/><stop offset="1" stop-color="#fff" stop-opacity="0"/></linearGradient><linearGradient id="dj"><stop offset="0" stop-color="#fff"/><stop offset="1" stop-color="#fff" stop-opacity="0"/></linearGradient><linearGradient id="dh"><stop offset="0" stop-color="#fff"/><stop offset="1" stop-color="#fff" stop-opacity="0"/></linearGradient><linearGradient id="dn"><stop offset="0" stop-color="#edd400"/><stop offset="1" stop-color="#edd400" stop-opacity="0"/></linearGradient><linearGradient id="di"><stop offset="0" stop-color="#fcaf3e"/><stop offset="1" stop-color="#fcaf3e" stop-opacity="0"/></linearGradient><linearGradient id="dm"><stop offset="0" stop-color="#fce94f"/><stop offset="1" stop-color="#fce94f" stop-opacity="0"/></linearGradient><linearGradient id="dl"><stop offset="0" stop-color="#eeeeec"/><stop offset="1" stop-color="#eeeeec" stop-opacity="0"/></linearGradient><linearGradient id="dk"><stop offset="0" stop-color="#fff"/><stop offset="1" stop-color="#fff" stop-opacity="0"/></linearGradient></defs><g transform="translate(-264 459.975)"><path d="M280.5-445.5c-2.27 0-4.11 1.55-4.72 3.625-.692-.364-1.443-.625-2.28-.625-2.76 0-5 2.24-5 5 0 .58.163 1.108.344 1.625-1.374.77-2.344 2.19-2.344 3.875 0 2.484 2.016 4.5 4.5 4.5h19c2.484 0 4.5-2.016 4.5-4.5 0-1.686-.97-3.104-2.344-3.875.18-.517.344-1.046.344-1.625 0-2.76-2.24-5-5-5-.837 0-1.588.26-2.28.625-.61-2.075-2.45-3.625-4.72-3.625z" fill="#c4c5c2" stroke="#888a85" stroke-miterlimit="2"/><path d="M280.5-445c-2.19 0-3.724 1.336-4.396 3.844-.668-.344-1.547-.834-2.354-.834-2.717 0-4.755 1.94-4.755 4.546 0 .546.267 1.333.442 1.822-1.325.728-2.437 1.89-2.437 3.372 0 2.346 1.546 4.25 4.34 4.25h18.32c2.772 0 4.34-1.904 4.34-4.25 0-1.592-1.112-2.666-2.437-3.394.175-.49.464-1.254.464-1.8 0-2.607-2.116-4.568-4.777-4.568-.807 0-1.642.49-2.31.833-.65-2.42-2.25-3.82-4.44-3.82z" fill="url(#do)"/><path d="M284-440.5a3.5 3.5 0 1 1-7 0 3.5 3.5 0 1 1 7 0z" fill="#c4c5c2"/><path d="M291.688-437.594a3.313 3.313 0 1 1-6.625 0 3.313 3.313 0 1 1 6.625 0z" transform="matrix(1.0566 0 0 1.0566 -24.198 21.863)" fill="url(#dp)"/><path fill="#c4c5c2" d="M271-438h20v9h-20z"/><path d="M274-432a3 3 0 1 1-6 0 3 3 0 1 1 6 0zM291-437.5a3.5 3.5 0 1 1-7 0 3.5 3.5 0 1 1 7 0z" fill="#c4c5c2"/><path d="M291.688-437.594a3.313 3.313 0 1 1-6.625 0 3.313 3.313 0 1 1 6.625 0z" transform="matrix(1.0566 0 0 1.0566 -17.198 24.863)" fill="url(#dq)"/><path d="M277-437.5a3.5 3.5 0 1 1-7 0 3.5 3.5 0 1 1 7 0z" fill="#c4c5c2"/><path d="M291.688-437.594a3.313 3.313 0 1 1-6.625 0 3.313 3.313 0 1 1 6.625 0z" transform="matrix(1.0566 0 0 1.0566 -31.198 24.863)" fill="url(#dr)"/><g transform="translate(-1)"><path d="M280.47-440.97c-3.58 0-6.47 2.922-6.47 6.5 0 2.372 1.35 4.34 3.25 5.47h6.47c1.9-1.13 3.25-3.13 3.25-5.5 0-3.58-2.922-6.47-6.5-6.47z" fill="#c4c5c2"/><path d="M280.5-441c-3.588 0-6.5 2.912-6.5 6.5 0 2.376 1.345 4.366 3.25 5.5h6.5c1.905-1.134 3.25-3.124 3.25-5.5 0-3.588-2.912-6.5-6.5-6.5z" fill="url(#ds)"/></g><path transform="translate(9.83 -35.69) scale(.90566)" d="M291.688-437.594a3.313 3.313 0 1 1-6.625 0 3.313 3.313 0 1 1 6.625 0z" fill="url(#dt)"/><path d="M292.956-437.334c0 2.685-3.27 3.714-3.27 3.714s2.35-1.626 2.338-3.705l.932-.01z" fill="#888a85" fill-rule="evenodd"/><g transform="matrix(1.14286 0 0 1.14286 -28.57 67)"><path d="M277-437.5a3.5 3.5 0 1 1-7 0 3.5 3.5 0 1 1 7 0z" fill="#c4c5c2"/><path d="M291.688-437.594a3.313 3.313 0 1 1-6.625 0 3.313 3.313 0 1 1 6.625 0z" transform="matrix(1.0566 0 0 1.0566 -31.198 24.863)" fill="url(#du)"/></g></g><g transform="matrix(.9987 0 0 .9987 -342.54 469.412)"><path d="M380.518-446.125a13.518 13.518 0 1 1-27.036 0 13.518 13.518 0 1 1 27.036 0z" fill="#eaece8"/><g transform="translate(37.125 -1.625)"><path d="M323.846-456.078c.05.176-.126.394-.28.6-.2.267-.31.446-.08.677.144.142.58.015.72-.04.32-.13.673-.23.997-.36.246-.098.43-.137.678-.2.288-.07.573.057.68.2.068.09-.462.49-.52.52-.24.12-.472.217-.717.278-.302.075-.572.178-.878.24-.308.06-.524.154-.798.32-.34.203-.626.505-.918.797-.274.272-.368.567-.28.917.084.338.21.457.518.52.344.068.51-.096.68-.32.217-.29.3-.66.557-.918.215-.215.362-.42.6-.598.238-.18.42-.274.717-.2.247.062.45.305.718.36.228.045.562-.262.76-.36.04-.02.078-.053.118-.08.208-.138.55-.08.798-.08.27 0 .496.13.72.24.267.134.5.126.757.32.272.204.42.358.558.638.133.264.192.43.4.638.22.22.56.36.798.6.143.142.233.53.28.717.073.292.14.598 0 .877-.15.302-.332.584-.48.878-.144.29-.548.53-.797.718-.342.257-.75.272-1.076.598-.376.377-.41.597-.76 1.12-.256.384.05.555.36.478.33-.082.633-.16.958-.24l.16-.04c.4-.1.718-.42 1.117-.518.496-.125 1.542.646 1.994.917.357.214-.07.633-.24.72-.316.157-.632.198-.997.198-.236 0-.492-.074-.718-.12-.306-.06-.52-.06-.76.12-.266.2-.235.458-.08.718.157.26.41.444.48.72.086.345-.194.53-.44.677-.246.148-.67-.04-.957-.04-.36 0-.71.185-.997.4-.13.096-.243.612-.28.757l-.04.16c-.097.39.028.587.16.918.096.24.328.456.44.678.137.277.228.46.08.758-.13.256-.177.464-.24.72-.045.18.207.658.28.837.143.36.01.43-.24.68-.222.22-.552.275-.8.398-.228.114-.68-.02-.917-.08-.268-.067-.516.058-.72.16-.32.16-.32.316-.558 0-.25-.336-.46-.686-.558-1.078l-.04-.16c-.067-.267-.04-.595-.04-.877 0-.288.08-.545.08-.838 0-.316-.755.278-.958.36-.094.037-.186.08-.28.12-.398.17-.358.534-.358.877 0 .34.2.6.2.956 0 .343-.404.44-.68.44-.39 0-.57-.453-.837-.72-.253-.253-.687-.537-.837-.837-.212-.425-.284-.666.16-1 .254-.19.608-.225.798-.477.2-.266.482-.638 0-.76-.328-.08-.455-.195-.837-.118l-.2.04c-.66.13-.655.07-1.277-.24-.447-.224-.6-.56-.918-.878-.295-.295-.462-.692-.558-1.077-.09-.355-.194-.695-.28-1.038-.07-.28-.08-.625-.08-.917 0-.298-.08-.614-.08-.918v-.998c0-.337.04-.635.04-.96 0-.276.055-.615.12-.876.007-.026 0-.054 0-.08 0-.34.197-.692.32-.998.107-.27.274-.55.4-.798.13-.26.26-.48.438-.718.192-.256.396-.516.598-.758.347-.417.708-.807 1.117-1.158.24-.204.357-.546.64-.758.348-.26.65-.54.997-.798.262-.197.5-.424.678-.718.143-.24.224-.464.44-.678.05-.053.23-.135.278-.16z" opacity=".106" fill="#787974" fill-rule="evenodd"/><path d="M334.86-450.97c-.385.092-1.153.224-1.676.12-.4-.08-.415-.305-.798.08-.027.026-.054.052-.08.08-.243.24-.28.278-.28.637 0 .237.004.462-.04.68-.046.232-.01.59.04.797.08.314.128.535.28.838.12.242.177.432.4.598.287.216.683.274.996.4.22.088.59.04.838.04.314 0 .36.035.36.398 0 .312-.586.75-.76 1.038-.19.318-.117.564 0 .918.09.263.146.524.2.798.058.285.132.49.36.718.242.242.69-.026.918.28.115.153.12.407.12.598 0 .317.102.467.398.32.27-.136.473-.126.68-.4.195-.26.293-.588.438-.878.13-.258.35-.28.638-.28.267 0 .48.07.758 0 .407-.1.47-.228.76-.518.365-.367.322-.622.398-1.077.034-.206-.034-.455-.08-.64l-.04-.158c-.056-.223-.544-.24-.718-.24-.386 0-.958-.19-1.317-.28-.184-.045-.692-.65-.838-.797-.21-.21-.253-.37-.32-.64-.082-.328-.038-.67-.12-.996-.092-.373.017-.583-.278-.878-.21-.21-.347-.497-.4-.758-.05-.253-.287-.535-.478-.68-.142-.104-.158-.078-.36-.118z" opacity=".189" fill="#787974" fill-rule="evenodd"/><path d="M341.005-448.656c-.207.007-.42.26-.6.44-.176.176-.12.48-.12.717 0 .262.057.545.12.8.055.215.254.492.4.638.22.22.502.35.798.4.388.064.602.11.758-.28.11-.27.16-.454.16-.76 0-.275-.01-.487-.08-.757-.08-.325-.185-.49-.478-.637-.207-.104-.418-.344-.598-.48-.104-.077-.236-.08-.36-.08z" opacity=".183" fill="#787974" fill-rule="evenodd"/><path d="M328.355-436.206c.217-.148.846-.794 1.277-1.117.083-.063.16-.133.24-.2.43-.358.805-.928 1.117-1.396.494-.743.712-1.41.877-2.234.21-1.046.262-.348.04.32-.035.103-.054.212-.08.318-.11.437-.152.9-.32 1.317-.225.565-.65 1.05-.797 1.637-.08.314-.185.697-.12.958.078.312.533-.377.838-.48.415-.137.52-.228.52.24 0 .284-.144.674-.2.958-.1.49 1.287.077 1.595 0 1.008-.252 1.698-.597 2.514-1.277.898-.748 1.646-1.565 2.474-2.394.668-.667.982-1.085.56.04l-.12.32-.12.318c-.22.59-.623 1.24-1.157 1.597-.83.554-1.37 1.582-2.274 2.035-.368.183-.75.255-1.12.44-.368.183.72.313.92.358 2.002.445-1.622.638-2.076.638-.748 0-1.123-.156-1.716.2-.202.12.944.587.998.598.467.094.885.4 1.397.4.85 0-1.773.264-2.514.08-.623-.156-1.21-.283-1.837-.44-.318-.08-.636-.03-.918.04-.056.014.04.824.04.918 0 .59-.155 1.052-.44.2-.152-.46-.438-.945-.438-1.437 0-.312-.41.47-.598.718-.265.35-.783.854-.88.878-.012.003.26-.554.36-.958.076-.303.566-1.115.24-1.197-.306-.076-.726-.017-1.038-.08-.464-.092-.96-.18-1.397-.4-.844-.42-2.163-.81-3.072-1.036-.084-.02-1.456-1.496-.16-.2.856.856 2.19 1.437 3.392 1.437.385 0 .956-.15 1.317-.24.217-.055.516-.383.758-.48.262-.104-.418-.38-.6-.598l-.198-.24c-.716-.858-.967-2.043-1.796-2.872-.133-.134-2.078-2.404-1.157-1.636.95.793 1.83 1.498 2.633 2.434.41.48.764 1.105 1.157 1.596.395.493.31-.103.2-.44-.24-.72-.12-1.72-.12-2.473 0-.997.515 1.025.558 1.198.124.496.38 1.142.758.638.39-.52.44-.618.44.04v.16c0 .248-.014.533.04.798z" opacity=".472" fill="#f3f4f2" fill-rule="evenodd"/><path d="M340.047-444.985c.08.085.16.377.16.64 0 .105-.66.62-.76.717-.19.192-.23.515-.278.758-.064.313-.142.53-.08.838.05.26.16.52.28.758.142.287.35.43.597.68.276.274.616.272.958.358.435.108-.258.523-.36.598-.267.2-.528.26-.678.56-.172.345.185.472.4.558.24.096.606-.33.718-.48.15-.2.4-.426.4-.678 0-.247.118-.508.118-.798 0-.27.062-.564.12-.798.09-.355.217-.496.44-.718.178-.18.173-.62.12-.838-.064-.25-.22-.477-.28-.718-.062-.246-.363-.39-.56-.44-.235-.058-.567-.487-.717-.638-.208-.207-.3-.36-.6-.36z" opacity=".117" fill="#787974" fill-rule="evenodd"/><path d="M322.69-446.022c-.01-.01.025 0 0 0z" fill="none" stroke="#000" stroke-width="1.001"/><path d="M327.597-455.68c.172-.042.572-.172.838-.238.34-.085.697.12 1.038.12.034 0 .255.438.638.438h.16c.242 0 .512.193.68.36.16.16.013.544-.08.638-.255.254-.482.077-.68-.12-.21-.21-.32-.29-.598-.36-.275-.068-.57-.026-.838.04-.327.083-.542.16-.918.16-.125 0-.512-.545-.558-.638-.082-.164.22-.374.32-.4z" opacity=".2" fill="#938f8b" fill-rule="evenodd"/><path d="M332.425-455c.198.05.64.04.958-.04.352-.088.908-.133 1.277-.04.223.055 1.587.323.958.638-.312.156-.642.193-.918.36-.333.2.402.278.56.278.423 0 .18.51.078.68-.157.26-.05.665 0 .917.057.285.548.24.798.24.344 0 .632.044.838.318.183.244.435.49.32.72-.12.237-.722.28-.918.28-.152 0-.75-.764-.838-.84-.23-.197-.5-.014-.718.04-.39.098-.676-.396-.918-.598-.262-.218-.425-.53-.56-.798-.168-.338.105-.48-.398-.48-.312 0-.483-.062-.718-.238-.32-.24-.56-.147-.56-.6 0-.397.023-.514.36-.717.11-.066.254-.034.4-.12z" opacity=".289" fill="#938f8b" fill-rule="evenodd"/><path d="M323.877-456.19c.048.176-.126.394-.28.6-.2.267-.31.446-.08.677.144.143.58.016.72-.04.32-.128.672-.23.996-.36.246-.097.43-.136.68-.198.286-.073.57.056.677.198.068.09-.462.49-.52.52-.24.12-.47.217-.717.278-.302.076-.57.178-.878.24-.307.06-.523.154-.798.32-.34.203-.626.505-.918.797-.273.272-.368.567-.28.918.084.338.21.458.52.52.342.068.51-.096.677-.32.218-.29.302-.66.56-.918.214-.215.36-.42.597-.598.24-.18.42-.274.72-.2.246.062.447.306.717.36.228.045.563-.26.76-.36.042-.02.08-.053.12-.08.206-.138.55-.08.797-.08.27 0 .496.13.718.24.27.134.5.126.758.32.273.204.42.358.56.638.13.264.19.43.398.638.222.22.56.36.8.6.142.142.232.53.278.717.074.293.14.6 0 .878-.15.302-.33.584-.478.878-.145.29-.55.53-.8.718-.342.258-.75.273-1.076.6-.375.375-.41.596-.758 1.117-.257.385.05.556.36.48.328-.083.632-.16.957-.24l.16-.04c.4-.1.717-.42 1.117-.52.497-.124 1.543.647 1.995.92.357.213-.07.632-.24.717-.316.158-.633.2-.997.2-.236 0-.493-.075-.718-.12-.306-.06-.518-.06-.76.12-.266.2-.235.457-.078.718.156.26.41.443.478.718.087.346-.193.53-.44.678-.245.148-.67-.04-.956-.04-.362 0-.712.185-.998.4-.13.097-.243.613-.28.758-.012.053-.026.106-.04.16-.096.388.028.586.16.917.096.24.33.456.44.678.138.278.23.46.08.76-.128.254-.176.462-.24.718-.045.18.207.658.28.838.143.36.01.43-.24.678-.22.22-.552.276-.798.4-.23.114-.68-.022-.918-.08-.267-.067-.515.057-.718.16-.322.16-.32.316-.56 0-.25-.337-.46-.687-.558-1.08l-.04-.158c-.066-.267-.04-.596-.04-.878 0-.288.08-.545.08-.838 0-.316-.754.278-.957.36-.094.037-.187.08-.28.12-.398.17-.36.534-.36.877 0 .34.2.602.2.957 0 .343-.403.44-.678.44-.392 0-.573-.453-.84-.72-.253-.253-.687-.537-.837-.837-.212-.424-.283-.665.16-.997.254-.19.608-.226.798-.48.2-.265.483-.637 0-.757-.327-.083-.454-.197-.837-.12l-.2.04c-.66.132-.654.07-1.276-.24-.448-.224-.6-.56-.918-.878-.296-.295-.463-.692-.56-1.077-.088-.355-.193-.695-.28-1.037-.07-.28-.08-.625-.08-.917 0-.297-.08-.614-.08-.918v-.998c0-.336.04-.634.04-.957 0-.278.055-.616.12-.878.007-.026 0-.053 0-.08 0-.34.198-.692.32-.998.108-.27.275-.55.4-.798.13-.26.26-.48.438-.718.192-.256.397-.516.6-.758.346-.417.707-.807 1.116-1.157.24-.205.357-.547.638-.76.35-.26.653-.538.998-.797.262-.196.502-.424.678-.718.144-.24.225-.464.44-.678.052-.053.23-.135.28-.16z" opacity=".178" fill="url(#dv)" fill-rule="evenodd"/><path d="M327.597-443.947a.678.678 0 1 1-1.357 0 .678.678 0 1 1 1.357 0z" opacity=".617" fill="#fff"/><path d="M321.093-449.334a.36.36 0 1 1-.718 0 .36.36 0 1 1 .718 0z" opacity=".544" fill="#fff"/><path d="M337.374-444.705a.678.678 0 1 1-1.357 0 .678.678 0 1 1 1.357 0z" opacity=".544" fill="#c2c3be"/><path d="M332.266-434.49a.678.678 0 1 1-1.357 0 .678.678 0 1 1 1.356 0z" opacity=".567" fill="#c2c3be"/><path d="M336.496-444.546a.44.44 0 1 1-.878 0 .44.44 0 1 1 .878 0zM328.196-434.01a.36.36 0 1 1-.72 0 .36.36 0 1 1 .72 0zM334.82-438.64a.44.44 0 1 1-.878 0 .44.44 0 1 1 .878 0zM340.007-450.053a.44.44 0 1 1-.878 0 .44.44 0 1 1 .877 0zM336.974-449.254a.44.44 0 1 1-.877 0 .44.44 0 1 1 .877 0zM338.172-453.724a.44.44 0 1 1-.878 0 .44.44 0 1 1 .878 0zM329.313-440.476a.44.44 0 1 1-.878 0 .44.44 0 1 1 .878 0z" opacity=".617" fill="#fff"/><path d="M328.314-435.943c.2-.136.783-.727 1.183-1.023.077-.057.148-.12.222-.182.398-.328.745-.85 1.035-1.28.46-.68.66-1.29.813-2.044.194-.958.243-.318.037.292-.032.095-.05.195-.074.292-.1.4-.14.823-.294 1.206-.21.516-.604.96-.74 1.497-.073.287-.172.638-.11.877.07.285.493-.345.776-.44.385-.125.48-.208.48.22 0 .26-.132.617-.185.877-.09.447 1.194.07 1.48 0 .934-.23 1.574-.547 2.33-1.17.833-.685 1.525-1.433 2.293-2.19.618-.61.91-.994.518.035l-.11.293-.112.292c-.205.54-.578 1.135-1.072 1.46-.77.508-1.27 1.45-2.11 1.864-.338.167-.693.233-1.034.4-.343.17.666.29.85.33 1.857.408-1.502.584-1.923.584-.694 0-1.04-.143-1.59.183-.188.112.874.54.924.55.435.085.82.364 1.296.364.788 0-1.643.243-2.33.073-.576-.142-1.122-.258-1.702-.4-.294-.074-.59-.03-.85.035-.052.013.037.754.037.84 0 .54-.143.963-.406.183-.142-.42-.407-.865-.407-1.315 0-.285-.382.43-.555.657-.244.322-.725.782-.814.804-.012.004.24-.506.333-.876.072-.277.526-1.02.223-1.096-.282-.07-.672-.015-.96-.073-.43-.084-.892-.165-1.296-.365-.783-.386-2.005-.74-2.848-.95-.08-.02-1.35-1.368-.15-.182.794.783 2.032 1.315 3.145 1.315.357 0 .887-.137 1.22-.22.202-.05.48-.35.703-.438.243-.096-.387-.35-.555-.548l-.184-.22c-.664-.784-.897-1.87-1.666-2.63-.123-.12-1.926-2.198-1.072-1.496.882.727 1.697 1.373 2.44 2.23.382.438.71 1.01 1.073 1.46.366.452.29-.094.185-.402-.222-.66-.11-1.576-.11-2.264 0-.914.477.937.517 1.095.115.453.353 1.045.703.584.362-.476.407-.567.407.036v.146c0 .227-.013.488.037.73z" fill="#fff" fill-rule="evenodd"/><g transform="translate(461.697 -517.207)" opacity=".317" fill="#a3a4a0"><path d="M-125.865 68.418a1.768 1.68 0 1 1-3.536 0 1.768 1.68 0 1 1 3.535 0zM-123.92 72.395a1.768 1.68 0 1 1-3.536 0 1.768 1.68 0 1 1 3.536 0z"/><path d="M-121.976 72.338a1.15 1.092 0 1 1-2.298 0 1.15 1.092 0 1 1 2.298 0zM-131.787 66.836a2.74 2.603 0 1 1-5.48 0 2.74 2.603 0 1 1 5.48 0zM-137.09 72.992a3.182 3.023 0 1 1-6.364 0 3.182 3.023 0 1 1 6.364 0z"/><path d="M-133.643 75.79a2.475 2.35 0 1 1-4.95 0 2.475 2.35 0 1 1 4.95 0zM-135.234 69.213a2.475 2.35 0 1 1-4.95 0 2.475 2.35 0 1 1 4.95 0z"/></g><path d="M329.07-434.735a.663.663 0 1 1-1.325 0 .663.663 0 1 1 1.325 0z" fill="#fff"/></g><path d="M380.537-446.018a13.518 13.518 0 1 1-27.037 0 13.518 13.518 0 1 1 27.037 0z" fill="none" stroke="#888a85" stroke-width="1.0010457799999999"/><path transform="matrix(.77807 -1.0613 1.0613 .77807 410.472 -466.346)" d="M-22.5-17.5a9.5 9.5 0 1 1-19 0 9.5 9.5 0 1 1 19 0z" fill="none" stroke="#fff" stroke-width=".761" stroke-linecap="square"/></g><g transform="translate(-249 467.875)"><path d="M280.5-445.5c-2.27 0-4.11 1.55-4.72 3.625-.692-.364-1.443-.625-2.28-.625-2.76 0-5 2.24-5 5 0 .58.163 1.108.344 1.625-1.374.77-2.344 2.19-2.344 3.875 0 2.484 2.016 4.5 4.5 4.5h19c2.484 0 4.5-2.016 4.5-4.5 0-1.686-.97-3.104-2.344-3.875.18-.517.344-1.046.344-1.625 0-2.76-2.24-5-5-5-.837 0-1.588.26-2.28.625-.61-2.075-2.45-3.625-4.72-3.625z" fill="#c4c5c2" stroke="#888a85" stroke-miterlimit="2"/><path d="M280.5-445c-2.19 0-3.724 1.336-4.396 3.844-.668-.344-1.547-.834-2.354-.834-2.717 0-4.755 1.94-4.755 4.546 0 .546.267 1.333.442 1.822-1.325.728-2.437 1.89-2.437 3.372 0 2.346 1.546 4.25 4.34 4.25h18.32c2.772 0 4.34-1.904 4.34-4.25 0-1.592-1.112-2.666-2.437-3.394.175-.49.464-1.254.464-1.8 0-2.607-2.116-4.568-4.777-4.568-.807 0-1.642.49-2.31.833-.65-2.42-2.25-3.82-4.44-3.82z" fill="url(#dw)"/><path d="M284-440.5a3.5 3.5 0 1 1-7 0 3.5 3.5 0 1 1 7 0z" fill="#c4c5c2"/><path d="M291.688-437.594a3.313 3.313 0 1 1-6.625 0 3.313 3.313 0 1 1 6.625 0z" transform="matrix(1.0566 0 0 1.0566 -24.198 21.863)" fill="url(#dx)"/><path fill="#c4c5c2" d="M271-438h20v9h-20z"/><path d="M274-432a3 3 0 1 1-6 0 3 3 0 1 1 6 0zM291-437.5a3.5 3.5 0 1 1-7 0 3.5 3.5 0 1 1 7 0z" fill="#c4c5c2"/><path d="M291.688-437.594a3.313 3.313 0 1 1-6.625 0 3.313 3.313 0 1 1 6.625 0z" transform="matrix(1.0566 0 0 1.0566 -17.198 24.863)" fill="url(#dy)"/><path d="M277-437.5a3.5 3.5 0 1 1-7 0 3.5 3.5 0 1 1 7 0z" fill="#c4c5c2"/><path d="M291.688-437.594a3.313 3.313 0 1 1-6.625 0 3.313 3.313 0 1 1 6.625 0z" transform="matrix(1.0566 0 0 1.0566 -31.198 24.863)" fill="url(#dz)"/><g transform="translate(-1)"><path d="M280.47-440.97c-3.58 0-6.47 2.922-6.47 6.5 0 2.372 1.35 4.34 3.25 5.47h6.47c1.9-1.13 3.25-3.13 3.25-5.5 0-3.58-2.922-6.47-6.5-6.47z" fill="#c4c5c2"/><path d="M280.5-441c-3.588 0-6.5 2.912-6.5 6.5 0 2.376 1.345 4.366 3.25 5.5h6.5c1.905-1.134 3.25-3.124 3.25-5.5 0-3.588-2.912-6.5-6.5-6.5z" fill="url(#dA)"/></g><path transform="translate(9.83 -35.69) scale(.90566)" d="M291.688-437.594a3.313 3.313 0 1 1-6.625 0 3.313 3.313 0 1 1 6.625 0z" fill="url(#dB)"/><path d="M292.956-437.334c0 2.685-3.27 3.714-3.27 3.714s2.35-1.626 2.338-3.705l.932-.01z" fill="#888a85" fill-rule="evenodd"/><g transform="matrix(1.14286 0 0 1.14286 -28.57 67)"><path d="M277-437.5a3.5 3.5 0 1 1-7 0 3.5 3.5 0 1 1 7 0z" fill="#c4c5c2"/><path d="M291.688-437.594a3.313 3.313 0 1 1-6.625 0 3.313 3.313 0 1 1 6.625 0z" transform="matrix(1.0566 0 0 1.0566 -31.198 24.863)" fill="url(#dC)"/></g></g></svg>